<svg width="140" height="140" viewBox="0 0 140 140" fill="none" xmlns="http://www.w3.org/2000/svg">
<g clip-path="url(#clip0_3366_12758)">
<path opacity="0.04" d="M49.2441 18.2473C58.2833 7.97434 68.3924 0.150755 81.8023 1.34613C106.076 3.51014 121.324 29.548 130.625 52.5705C138.072 71.0038 133.526 90.8655 125.052 108.402C117.898 123.207 105.112 134.075 89.2808 138.131C74.689 141.869 60.6565 135.254 46.913 128.421C29.1974 119.612 5.61098 113.96 1.52514 94.4967C-2.73056 74.2225 15.8853 58.8425 29.0917 43.5184C32.6691 39.3674 36.1349 34.771 39.6437 30.1828L39.213 117.516C39.206 118.943 40.3573 120.107 41.7847 120.114L97.756 120.391C99.1835 120.398 100.347 119.246 100.354 117.818L100.832 21.087C100.839 19.6596 99.6877 18.4967 98.2605 18.4893L49.2441 18.2473Z" fill="#00695C"/>
<circle opacity="0.2" cx="104.498" cy="23.5131" r="2.1" transform="rotate(14.952 104.498 23.5131)" fill="#00695C"/>
<circle opacity="0.2" cx="30.1" cy="95.9" r="2.1" fill="#00695C"/>
<circle opacity="0.2" cx="119.7" cy="76.3" r="2.1" fill="#00695C"/>
<circle opacity="0.35" cx="81.3664" cy="10.1138" r="1.4" transform="rotate(14.952 81.3664 10.1138)" fill="#00695C"/>
<circle opacity="0.2" cx="64.714" cy="15.7138" r="1.4" transform="rotate(14.952 64.714 15.7138)" fill="#00695C"/>
<path opacity="0.35" d="M115.073 100.779L110.056 109.62L104.735 106.58L105.731 104.824L109.299 106.863L113.32 99.7771L115.073 100.779Z" fill="#00695C"/>
<rect opacity="0.7" x="62.6309" y="24.4074" width="14.5575" height="2.9115" rx="1.29239" transform="rotate(0.28314 62.6309 24.4074)" fill="#00695C"/>
<rect opacity="0.7" x="78.644" y="24.4867" width="2.9115" height="2.9115" rx="1.29239" transform="rotate(0.28314 78.644 24.4867)" fill="#00695C"/>
<path opacity="0.56" d="M83.5531 57.1853C87.0534 57.2155 89.8656 60.1175 89.8354 63.6658L89.8244 63.9953C89.6258 67.3887 86.8336 70.0644 83.4424 70.0355C80.0516 70.0062 77.3063 67.2834 77.1656 63.8873L77.1602 63.5578C77.1904 60.0094 80.0527 57.1557 83.5531 57.1853ZM82.3486 58.2025C80.661 58.1882 79.274 59.514 79.1631 61.1994C78.7847 61.9018 78.5662 62.7077 78.5588 63.5687C78.5352 66.3624 80.7448 68.6135 83.4547 68.6369C86.1648 68.66 88.4126 66.4473 88.4367 63.6535C88.4596 60.9646 86.414 58.779 83.8443 58.5977C83.4001 58.3504 82.891 58.2072 82.3486 58.2025Z" fill="#00695C"/>
<path opacity="0.56" d="M58.1982 56.9693C61.6988 56.9992 64.5121 59.9013 64.4818 63.4498L64.4709 63.7793C64.2722 67.1727 61.48 69.8484 58.0889 69.8195C54.698 69.7902 51.9529 67.0674 51.8121 63.6713L51.8066 63.3418C51.8369 59.7936 54.6981 56.94 58.1982 56.9693ZM56.9951 57.9865C55.3075 57.9722 53.9206 59.2981 53.8096 60.9834C53.4311 61.6858 53.2127 62.4916 53.2053 63.3527C53.1817 66.1464 55.3912 68.3976 58.1012 68.4209C60.8112 68.444 63.059 66.2312 63.0832 63.4375C63.1061 60.7492 61.0611 58.5638 58.4922 58.3816C58.0477 58.1341 57.5379 57.9912 56.9951 57.9865Z" fill="#00695C"/>
<path opacity="0.4" d="M83.5534 57.1854C87.0537 57.2152 89.8669 60.1162 89.837 63.6645C89.8067 67.2129 86.9445 70.0653 83.444 70.0355C79.9434 70.0057 77.1302 67.1049 77.1604 63.5564C77.1909 60.0082 80.053 57.1555 83.5534 57.1854ZM82.3489 58.2025C80.5986 58.1876 79.1675 59.6139 79.1524 61.3881C79.1373 63.1623 80.5439 64.6134 82.2942 64.6283C84.0442 64.6431 85.4752 63.2167 85.4907 61.4428C85.5058 59.6686 84.0991 58.2175 82.3489 58.2025Z" fill="#00695C"/>
<path opacity="0.4" d="M58.1999 56.9693C61.7002 56.9993 64.5135 59.9002 64.4834 63.4484C64.4532 66.9968 61.5909 69.8492 58.0905 69.8195C54.5899 69.7897 51.7766 66.8889 51.8069 63.3404C51.8373 59.7921 54.6994 56.9395 58.1999 56.9693ZM56.9954 57.9865C55.2453 57.9717 53.8141 59.398 53.7989 61.1721C53.7838 62.9462 55.1905 64.3973 56.9407 64.4123C58.6908 64.4272 60.1218 63.0008 60.1372 61.2268C60.1523 59.4525 58.7456 58.0014 56.9954 57.9865Z" fill="#00695C"/>
<path opacity="0.6" d="M79.2201 77.4904C77.1142 79.1107 71.2645 81.3708 64.0462 78.2652C63.6914 78.1126 63.527 77.7011 63.6795 77.3464C63.8131 77.0359 64.1451 76.8721 64.4636 76.9383L64.5984 76.9798L65.2237 77.2362C71.6441 79.7363 76.6865 77.6765 78.3681 76.3825C78.6742 76.147 79.1132 76.2037 79.3487 76.5097C79.584 76.8158 79.526 77.2549 79.2201 77.4904Z" fill="#00695C"/>
<path opacity="0.7" d="M51.023 125.194C54.8605 129.101 61.1378 129.156 65.0439 125.319C66.3549 124.031 67.2216 122.466 67.6634 120.81L74.765 120.873C74.765 120.874 74.7642 120.875 74.7642 120.877L74.6985 128.308C74.6927 128.962 75.2718 129.552 75.926 129.557L79.6417 129.59L79.6745 125.875C79.6805 125.185 80.2405 124.635 80.924 124.647C81.5985 124.642 82.1689 125.223 82.1516 125.897L82.1186 129.612L85.8399 129.651C86.5234 129.651 87.0834 129.101 87.0894 128.423L87.1553 120.982L89.6234 121.004C90.9894 121.015 92.1113 119.913 92.1239 118.547C92.136 117.185 91.0348 116.058 89.6673 116.046L67.7076 115.853C67.2952 114.189 66.4562 112.609 65.1681 111.298C61.3306 107.392 55.0532 107.336 51.1471 111.174C47.241 115.011 47.1855 121.288 51.023 125.194ZM61.6317 114.772C63.5475 116.722 63.5196 119.867 61.5696 121.782C59.6196 123.698 56.475 123.67 54.5592 121.72C52.6434 119.77 52.6713 116.626 54.6213 114.71C56.5713 112.794 59.7159 112.822 61.6317 114.772Z" fill="#00695C"/>
<path opacity="0.7" d="M97.769 117.806L97.7567 120.392L94.3716 120.374C94.5909 119.815 94.7169 119.208 94.7229 118.572V118.569C94.7253 118.305 94.7067 118.044 94.6696 117.79L97.769 117.806ZM98.2599 18.4898C99.6873 18.497 100.839 19.66 100.832 21.0875L100.354 117.819L100.339 118.083C100.21 119.299 99.2378 120.262 98.0206 120.379L97.7567 120.392L98.2476 21.0752L42.2763 20.7977L41.7978 117.529L45.5999 117.547C45.5518 118.41 45.5971 119.277 45.7271 120.133L41.7854 120.114L41.5202 120.099C40.3045 119.969 39.3421 118.998 39.2247 117.78L39.2124 117.517L39.6909 20.7853C39.6975 19.4473 40.7197 18.3509 42.0233 18.2246L42.2886 18.2123L98.2599 18.4898Z" fill="#00695C"/>
<path opacity="0.5" d="M121.484 53.5641L108.185 60.1607L104.232 52.1321L106.873 50.8221L109.524 56.206L120.182 50.9194L121.484 53.5641Z" fill="#00695C"/>
<path opacity="0.35" d="M29.3896 67.1231L25.4716 76.5035L19.8238 74.1249L20.6019 72.2621L24.3892 73.8572L27.5291 66.3396L29.3896 67.1231Z" fill="#00695C"/>
</g>
<defs>
<clipPath id="clip0_3366_12758">
<rect width="140" height="140" fill="white"/>
</clipPath>
</defs>
</svg>
