<svg width="100" height="100" viewBox="0 0 100 100" fill="none" xmlns="http://www.w3.org/2000/svg">
<g clip-path="url(#clip0_3366_13006)">
<circle opacity="0.2" cx="51.5" cy="13.5" r="1.5" fill="#00695C"/>
<circle opacity="0.2" cx="13.5" cy="72.5" r="1.5" fill="#00695C"/>
<circle opacity="0.2" cx="79.5" cy="62.5" r="1.5" fill="#00695C"/>
<circle opacity="0.2" cx="35" cy="8" r="1" fill="#00695C"/>
<circle opacity="0.2" cx="30" cy="16" r="1" fill="#00695C"/>
<circle opacity="0.2" cx="18" cy="58" r="1" fill="#00695C"/>
<circle opacity="0.2" cx="86" cy="71" r="1" fill="#00695C"/>
<circle opacity="0.2" cx="22" cy="83" r="1" fill="#00695C"/>
<circle opacity="0.2" cx="44" cy="8" r="1" fill="#00695C"/>
<path opacity="0.04" d="M16.5905 30.8811C19.9666 19.1294 23.7014 7.09456 35.0346 3.06623C48.4199 -1.69134 60.6481 10.5806 72.6143 18.0988C81.8974 23.9313 91.1542 30.0214 94.3094 40.3077C97.7325 51.4678 95.8702 63.3086 89.5103 73.1821C81.9766 84.8779 71.563 95.0448 57.5542 97.3699C40.0575 100.274 18.5087 100.676 8.15046 86.6857C-2.01233 72.9598 9.03999 54.9873 14.2274 38.8524C14.6344 37.5865 15.0206 36.2911 15.4045 34.981L40.141 84.2913C40.5983 85.2024 41.7079 85.5701 42.6192 85.113L71.5746 70.5875C72.4857 70.1303 72.8536 69.0214 72.3968 68.1102L47.0836 17.6503C46.6265 16.739 45.5172 16.3703 44.6058 16.8273L16.5905 30.8811Z" fill="#00695C"/>
<rect opacity="0.7" x="27.7244" y="29.3204" width="8.59217" height="1.71843" rx="0.859217" transform="rotate(-26.6406 27.7244 29.3204)" fill="#00695C"/>
<rect opacity="0.7" x="36.1724" y="25.0826" width="1.71843" height="1.71843" rx="0.859217" transform="rotate(-26.6406 36.1724 25.0826)" fill="#00695C"/>
<path opacity="0.56" d="M47.669 40.8971C49.4841 40.1081 51.6294 40.8918 52.5327 42.7083L52.6153 42.8854C53.4177 44.7242 52.6635 46.8791 50.8713 47.7702L50.6968 47.8515C48.8816 48.6407 46.736 47.8562 45.8327 46.0394C44.9005 44.1641 45.6446 41.8981 47.4945 40.9784L47.669 40.8971ZM47.1323 41.8357C46.2076 42.2957 45.8357 43.428 46.3016 44.3656C46.3435 44.4499 46.3923 44.5292 46.4443 44.6044C46.4766 44.9383 46.5677 45.2737 46.7272 45.5947C47.4198 46.9874 49.0819 47.5442 50.4265 46.8757C51.7711 46.2071 52.3306 44.5459 51.6382 43.1531C51.0231 41.9163 49.6442 41.342 48.4013 41.6967C47.9884 41.5951 47.5406 41.6328 47.1323 41.8357Z" fill="#00695C"/>
<path opacity="0.4" d="M47.4945 40.9784C49.3446 40.0586 51.6002 40.8331 52.5327 42.7083C53.4651 44.5838 52.7214 46.8504 50.8713 47.7702C49.0212 48.6901 46.7651 47.9149 45.8327 46.0394C44.9005 44.164 45.6445 41.8982 47.4945 40.9784ZM47.1323 41.8357C46.2076 42.2957 45.8357 43.428 46.3016 44.3656C46.7678 45.3032 47.8954 45.6909 48.8205 45.2312C49.7455 44.7713 50.1178 43.6378 49.6516 42.7001C49.1853 41.7626 48.0572 41.3759 47.1323 41.8357Z" fill="#00695C"/>
<path opacity="0.56" d="M34.2692 47.5591C36.0843 46.7701 38.2296 47.5537 39.1329 49.3703L39.2155 49.5474C40.0179 51.3862 39.2638 53.5411 37.4715 54.4322L37.2971 54.5135C35.4818 55.3027 33.3362 54.5182 32.4329 52.7014C31.5008 50.8261 32.2448 48.5601 34.0948 47.6404L34.2692 47.5591ZM33.7325 48.4977C32.8077 48.9578 32.4361 50.0909 32.9022 51.0285C32.9441 51.1126 32.9926 51.1913 33.0445 51.2664C33.0768 51.6003 33.168 51.9357 33.3275 52.2566C34.02 53.6494 35.6822 54.2062 37.0268 53.5377C38.3713 52.8691 38.9308 51.2079 38.2384 49.8151C37.6233 48.5783 36.2444 48.004 35.0015 48.3587C34.5886 48.2571 34.1407 48.2948 33.7325 48.4977Z" fill="#00695C"/>
<path opacity="0.4" d="M34.0948 47.6404C35.9448 46.7206 38.2004 47.4951 39.1329 49.3703C40.0654 51.2458 39.3216 53.5124 37.4715 54.4322C35.6214 55.3521 33.3653 54.5769 32.4329 52.7014C31.5007 50.826 32.2447 48.5602 34.0948 47.6404ZM33.7325 48.4977C32.8077 48.9578 32.4361 50.0909 32.9022 51.0285C33.3685 51.9658 34.4958 52.3528 35.4207 51.8932C36.3456 51.4334 36.7182 50.3006 36.2523 49.3629C35.786 48.4252 34.6576 48.0378 33.7325 48.4977Z" fill="#00695C"/>
<path opacity="0.6" d="M50.5692 53.1442C49.7107 54.6379 47.2388 57.093 42.8678 57.3714C42.5927 57.3887 42.3555 57.1795 42.338 56.9043C42.3206 56.6291 42.5299 56.392 42.8051 56.3745C47.0781 56.1023 49.2743 53.5695 49.8183 52.4288C49.9371 52.1799 50.235 52.074 50.4839 52.1927C50.7329 52.3115 50.8379 52.6099 50.7192 52.8589L50.5692 53.1442Z" fill="#00695C"/>
<path opacity="0.7" d="M65.5285 57.1675C68.5819 57.9826 71.7179 56.1682 72.533 53.1149C72.8066 52.09 72.7781 51.058 72.5117 50.1054L76.0594 48.0526C76.0599 48.0534 76.0598 48.0543 76.0602 48.055L78.2083 51.7673C78.3974 52.0942 78.8582 52.2172 79.185 52.0281L81.0412 50.9541L79.9672 49.0979C79.7679 48.7535 79.8848 48.3158 80.2279 48.1212C80.5615 47.9204 81.0155 48.0418 81.2047 48.3819L82.2786 50.2381L84.1394 49.1654C84.4792 48.9649 84.596 48.5272 84.4001 48.1886L82.2491 44.471L83.4821 43.7576C84.1645 43.3626 84.3986 42.4856 84.0039 41.8029C83.6103 41.1225 82.7322 40.8855 82.0491 41.2808L71.0791 47.629C70.386 46.9232 69.5052 46.384 68.4803 46.1104C65.4269 45.2953 62.2909 47.1097 61.4758 50.1631C60.6607 53.2165 62.4752 56.3524 65.5285 57.1675ZM67.7423 48.8747C69.2666 49.2816 70.1756 50.8527 69.7687 52.3769C69.3617 53.9013 67.7908 54.8102 66.2665 54.4033C64.7421 53.9964 63.8332 52.4254 64.2401 50.9011C64.647 49.3767 66.218 48.4678 67.7423 48.8747Z" fill="#00695C"/>
<path opacity="0.7" d="M44.7793 16.752C45.6537 16.4193 46.6553 16.7962 47.084 17.6504L61.6836 46.7548C61.2109 47.269 60.8089 47.8563 60.4971 48.5058L45.4346 18.4785L16.4785 33.0039L42.6191 85.1132L42.4463 85.1893C41.5718 85.5221 40.5692 85.1452 40.1406 84.2909L14.8281 33.832C14.3996 32.9778 14.6962 31.9494 15.4853 31.4473L15.6504 31.3535L44.6064 16.8281L44.7793 16.752ZM71.5752 70.5878L42.6191 85.1132L41.792 83.4628L70.7471 68.9374L71.5752 70.5878ZM65.624 58.7255C66.3361 58.865 67.0468 58.8949 67.7383 58.8242L72.3965 68.1093C72.8251 68.9637 72.529 69.9931 71.7393 70.495L71.5752 70.5878L65.624 58.7255Z" fill="#00695C"/>
</g>
<defs>
<clipPath id="clip0_3366_13006">
<rect width="100" height="100" fill="white"/>
</clipPath>
</defs>
</svg>
