<svg width="100" height="100" viewBox="0 0 100 100" fill="none" xmlns="http://www.w3.org/2000/svg">
<path fill-rule="evenodd" clip-rule="evenodd" d="M57.3017 98.3191C71.2445 95.9221 81.6088 85.441 89.107 73.3834C95.4369 63.2046 97.2908 50.9979 93.8838 39.4926C90.7436 28.888 81.5306 22.6094 72.2911 16.5965C60.3813 8.84579 48.2104 -3.80592 34.8881 1.09902C21.0112 6.20813 18.5808 23.8102 14.179 37.9919C9.01607 54.6259 -1.98385 73.1542 8.13106 87.3047C18.4405 101.727 39.8875 101.313 57.3017 98.3191Z" fill="#305680" fill-opacity="0.04"/>
<circle cx="51.5" cy="13.5" r="1.5" fill="#305680" fill-opacity="0.2"/>
<circle cx="13.5" cy="72.5" r="1.5" fill="#305680" fill-opacity="0.2"/>
<circle cx="74.5" cy="64.5" r="1.5" fill="#305680" fill-opacity="0.2"/>
<circle cx="35" cy="8" r="1" fill="#305680" fill-opacity="0.2"/>
<circle cx="30" cy="16" r="1" fill="#305680" fill-opacity="0.2"/>
<circle cx="18" cy="58" r="1" fill="#305680" fill-opacity="0.2"/>
<circle cx="81" cy="73" r="1" fill="#305680" fill-opacity="0.2"/>
<circle cx="22" cy="83" r="1" fill="#305680" fill-opacity="0.2"/>
<circle cx="44" cy="8" r="1" fill="#305680" fill-opacity="0.2"/>
<path d="M70.1266 50.0796C70.8033 48.3939 70.8378 46.5184 70.2235 44.8089C69.6093 43.0994 68.3891 41.6747 66.7942 40.8051C66.662 40.7307 66.5163 40.6833 66.3657 40.6657C66.215 40.6481 66.0623 40.6606 65.9165 40.7024C65.7707 40.7443 65.6346 40.8147 65.5163 40.9096C65.3979 41.0045 65.2996 41.122 65.227 41.2552C65.1544 41.3884 65.109 41.5347 65.0934 41.6856C65.0778 41.8365 65.0924 41.989 65.1363 42.1343C65.1801 42.2795 65.2524 42.4146 65.3489 42.5316C65.4454 42.6487 65.5642 42.7454 65.6984 42.8162C66.8005 43.4173 67.6438 44.4018 68.0682 45.5833C68.4927 46.7647 68.4689 48.0608 68.0014 49.2259C67.8882 49.5078 67.8917 49.8232 68.0111 50.1026C68.1304 50.382 68.3559 50.6025 68.6378 50.7157C68.9198 50.8288 69.2351 50.8254 69.5145 50.706C69.7939 50.5867 70.0144 50.3612 70.1276 50.0793L70.1266 50.0796Z" fill="#305680" fill-opacity="0.65"/>
<path d="M74.6498 43.2177C73.614 40.3225 71.5131 37.9314 68.7753 36.5319C68.6411 36.4594 68.4939 36.4144 68.3421 36.3996C68.1904 36.3848 68.0372 36.4004 67.8916 36.4456C67.746 36.4907 67.6109 36.5645 67.4941 36.6626C67.3774 36.7606 67.2814 36.881 67.2119 37.0167C67.1423 37.1523 67.1005 37.3005 67.0889 37.4525C67.0773 37.6046 67.0962 37.7574 67.1445 37.902C67.1928 38.0466 67.2694 38.1801 67.37 38.2947C67.4705 38.4093 67.5929 38.5027 67.7301 38.5694C69.9482 39.7075 71.6512 41.6459 72.4942 43.9922C73.3372 46.3385 73.2574 48.9174 72.2708 51.207C72.2075 51.3457 72.1725 51.4957 72.1679 51.6481C72.1632 51.8004 72.1891 51.9522 72.2439 52.0945C72.2987 52.2367 72.3814 52.3666 72.487 52.4765C72.5927 52.5864 72.7193 52.6741 72.8593 52.7345C72.9993 52.7948 73.1499 52.8266 73.3024 52.8279C73.4548 52.8293 73.606 52.8002 73.7471 52.7424C73.8881 52.6845 74.0162 52.5991 74.1238 52.4911C74.2314 52.3831 74.3164 52.2547 74.3737 52.1134C75.5947 49.2914 75.6935 46.11 74.6498 43.2177Z" fill="#305680" fill-opacity="0.65"/>
<path d="M78.8456 53.6313C80.3942 49.794 80.4767 45.5211 79.0775 41.6268C77.6783 37.7326 74.8952 34.4893 71.2585 32.5151C71.126 32.4394 70.9797 32.391 70.8282 32.3726C70.6766 32.3543 70.523 32.3664 70.3762 32.4083C70.2295 32.4502 70.0926 32.521 69.9736 32.6165C69.8546 32.7121 69.7558 32.8304 69.6832 32.9646C69.6106 33.0989 69.5656 33.2463 69.5507 33.3982C69.5359 33.55 69.5515 33.7034 69.5968 33.8491C69.642 33.9949 69.716 34.1301 69.8142 34.2469C69.9125 34.3637 70.0331 34.4596 70.1689 34.5291C73.31 36.2352 75.7138 39.037 76.9224 42.4009C78.1311 45.7648 78.0602 49.4558 76.7232 52.7708C76.6092 53.0523 76.6117 53.3676 76.7302 53.6473C76.8487 53.927 77.0734 54.1482 77.355 54.2622C77.6365 54.3762 77.9518 54.3737 78.2316 54.2552C78.5113 54.1367 78.7324 53.912 78.8464 53.6304L78.8456 53.6313Z" fill="#305680" fill-opacity="0.65"/>
<rect x="16.9325" y="23.4268" width="38.7717" height="64.6196" rx="1.84627" transform="rotate(-12 16.9325 23.4268)" fill="white"/>
<rect x="18.0274" y="24.1378" width="36.9255" height="62.7733" rx="0.923137" transform="rotate(-12 18.0274 24.1378)" stroke="#305680" stroke-opacity="0.65" stroke-width="1.84627"/>
<rect x="31.9759" y="24.1799" width="9.23137" height="1.84627" rx="0.923137" transform="rotate(-12 31.9759 24.1799)" fill="#305680" fill-opacity="0.65"/>
<rect x="41.9085" y="22.0686" width="1.84627" height="1.84627" rx="0.923137" transform="rotate(-12 41.9085 22.0686)" fill="#305680" fill-opacity="0.65"/>
<ellipse cx="50.1942" cy="45.6556" rx="4.01947" ry="4.07449" transform="rotate(-11.7948 50.1942 45.6556)" fill="#305680" fill-opacity="0.4"/>
<path d="M53.6398 44.9361C54.0447 46.8751 52.8217 48.759 50.9249 49.1551C49.0282 49.5512 47.1535 48.3141 46.7486 46.3751C46.3437 44.4361 47.5667 42.5522 49.4634 42.1561C51.3602 41.7601 53.2349 42.9971 53.6398 44.9361Z" stroke="#305680" stroke-opacity="0.56" stroke-width="0.999034"/>
<ellipse cx="49.1687" cy="44.4539" rx="2.00973" ry="2.03724" transform="rotate(-11.7948 49.1687 44.4539)" fill="white"/>
<ellipse cx="34.4558" cy="48.942" rx="4.01947" ry="4.07449" transform="rotate(-11.7948 34.4558 48.942)" fill="#305680" fill-opacity="0.4"/>
<path d="M37.9015 48.2225C38.3064 50.1615 37.0833 52.0454 35.1866 52.4415C33.2899 52.8376 31.4151 51.6005 31.0102 49.6615C30.6053 47.7225 31.8284 45.8386 33.7251 45.4425C35.6218 45.0465 37.4966 46.2835 37.9015 48.2225Z" stroke="#305680" stroke-opacity="0.56" stroke-width="0.999034"/>
<ellipse cx="33.4306" cy="47.7405" rx="2.00973" ry="2.03724" transform="rotate(-11.7948 33.4306 47.7405)" fill="white"/>
<path d="M49.0773 54.5468C48.0866 55.7217 44.9248 57.8422 40.203 56.9247" stroke="#305680" stroke-opacity="0.65" stroke-width="0.999034" stroke-linecap="round"/>
</svg>
