<svg width="156" height="106" viewBox="0 0 156 106" fill="none" xmlns="http://www.w3.org/2000/svg">
    <rect width="156" height="106" fill="white"/>
    <path d="M17 71C17 70.4477 17.4477 70 18 70H26C26.5523 70 27 70.4477 27 71V89C27 89.5523 26.5523 90 26 90H18C17.4477 90 17 89.5523 17 89V71Z" fill="#808080" fill-opacity="0.1"/>
    <path d="M17 79C17 78.4477 17.4477 78 18 78H26C26.5523 78 27 78.4477 27 79V89C27 89.5523 26.5523 90 26 90H18C17.4477 90 17 89.5523 17 89V79Z" fill="#808080" fill-opacity="0.5"/>
    <path d="M45 71C45 70.4477 45.4477 70 46 70H54C54.5523 70 55 70.4477 55 71V89C55 89.5523 54.5523 90 54 90H46C45.4477 90 45 89.5523 45 89V71Z" fill="#808080" fill-opacity="0.1"/>
    <path d="M59 71C59 70.4477 59.4477 70 60 70H68C68.5523 70 69 70.4477 69 71V89C69 89.5523 68.5523 90 68 90H60C59.4477 90 59 89.5523 59 89V71Z" fill="#808080" fill-opacity="0.1"/>
    <path d="M73 71C73 70.4477 73.4477 70 74 70H82C82.5523 70 83 70.4477 83 71V89C83 89.5523 82.5523 90 82 90H74C73.4477 90 73 89.5523 73 89V71Z" fill="#808080" fill-opacity="0.1"/>
    <path d="M87 71C87 70.4477 87.4477 70 88 70H96C96.5523 70 97 70.4477 97 71V89C97 89.5523 96.5523 90 96 90H88C87.4477 90 87 89.5523 87 89V71Z" fill="#808080" fill-opacity="0.1"/>
    <path d="M101 71C101 70.4477 101.448 70 102 70H110C110.552 70 111 70.4477 111 71V89C111 89.5523 110.552 90 110 90H102C101.448 90 101 89.5523 101 89V71Z" fill="#808080" fill-opacity="0.1"/>
    <path d="M115 71C115 70.4477 115.448 70 116 70H124C124.552 70 125 70.4477 125 71V89C125 89.5523 124.552 90 124 90H116C115.448 90 115 89.5523 115 89V71Z" fill="#808080" fill-opacity="0.1"/>
    <path d="M129 71C129 70.4477 129.448 70 130 70H138C138.552 70 139 70.4477 139 71V89C139 89.5523 138.552 90 138 90H130C129.448 90 129 89.5523 129 89V71Z" fill="#808080" fill-opacity="0.1"/>
    <path d="M31 71C31 70.4477 31.4477 70 32 70H40C40.5523 70 41 70.4477 41 71V89C41 89.5523 40.5523 90 40 90H32C31.4477 90 31 89.5523 31 89V71Z" fill="#808080" fill-opacity="0.1"/>
    <path d="M31 84C31 83.4477 31.4477 83 32 83H40C40.5523 83 41 83.4477 41 84V89C41 89.5523 40.5523 90 40 90H32C31.4477 90 31 89.5523 31 89V84Z" fill="#808080" fill-opacity="0.5"/>
    <path d="M45 86C45 85.4477 45.4477 85 46 85H54C54.5523 85 55 85.4477 55 86V89C55 89.5523 54.5523 90 54 90H46C45.4477 90 45 89.5523 45 89V86Z" fill="#808080" fill-opacity="0.5"/>
    <path d="M59 82C59 81.4477 59.4477 81 60 81H68C68.5523 81 69 81.4477 69 82V89C69 89.5523 68.5523 90 68 90H60C59.4477 90 59 89.5523 59 89V82Z" fill="#808080" fill-opacity="0.5"/>
    <path d="M73 75C73 74.4477 73.4477 74 74 74H82C82.5523 74 83 74.4477 83 75V89C83 89.5523 82.5523 90 82 90H74C73.4477 90 73 89.5523 73 89V75Z" fill="#808080" fill-opacity="0.5"/>
    <path d="M87 78C87 77.4477 87.4477 77 88 77H96C96.5523 77 97 77.4477 97 78V89C97 89.5523 96.5523 90 96 90H88C87.4477 90 87 89.5523 87 89V78Z" fill="#808080" fill-opacity="0.5"/>
    <path d="M101 83C101 82.4477 101.448 82 102 82H110C110.552 82 111 82.4477 111 83V89C111 89.5523 110.552 90 110 90H102C101.448 90 101 89.5523 101 89V83Z" fill="#808080" fill-opacity="0.5"/>
    <path d="M115 75C115 74.4477 115.448 74 116 74H124C124.552 74 125 74.4477 125 75V89C125 89.5523 124.552 90 124 90H116C115.448 90 115 89.5523 115 89V75Z" fill="#808080" fill-opacity="0.5"/>
    <path d="M129 79C129 78.4477 129.448 78 130 78H138C138.552 78 139 78.4477 139 79V89C139 89.5523 138.552 90 138 90H130C129.448 90 129 89.5523 129 89V79Z" fill="#808080" fill-opacity="0.5"/>
    <path d="M40 16C43.6606 16 47.2727 16.8373 50.5599 18.448L46.3354 27.0698C44.3632 26.1035 42.1962 25.6012 40 25.6012L40 16Z" fill="#808080" fill-opacity="0.38"/>
    <path fill-rule="evenodd" clip-rule="evenodd" d="M39 26.6011L39 14.9999L40 14.9999C43.8131 14.9999 47.5757 15.8721 50.9999 17.5498L51.8978 17.9898L46.7934 28.4077L45.8954 27.9677C44.0602 27.0685 42.0436 26.6011 40 26.6011L39 26.6011ZM41 24.6336C42.6715 24.7423 44.3142 25.1231 45.8631 25.7609L49.2123 18.9254C46.6156 17.7903 43.8313 17.1448 41 17.0216L41 24.6336Z" fill="white"/>
    <path d="M63.7911 36.842C63.2701 32.9173 61.7862 29.1823 59.4717 25.9701C57.1572 22.7579 54.084 20.1681 50.5259 18.4317L46.3149 27.0602C48.4496 28.1019 50.2934 29.6557 51.682 31.5828C53.0706 33.51 53.9608 35.7508 54.2734 38.1055L63.7911 36.842Z" fill="#808080" fill-opacity="0.5"/>
    <path fill-rule="evenodd" clip-rule="evenodd" d="M44.978 27.5199L50.0662 17.0941L50.9648 17.5327C54.6712 19.3415 57.8725 22.0391 60.2834 25.3852C62.6944 28.7313 64.2401 32.6218 64.7828 36.7101L64.9144 37.7014L53.4141 39.228L53.2825 38.2367C52.9916 36.0456 52.1632 33.9604 50.871 32.1671C49.5789 30.3738 47.8631 28.9279 45.8767 27.9585L44.978 27.5199ZM47.6383 26.6289C49.5472 27.7194 51.204 29.208 52.4937 30.9979C53.7834 32.7878 54.6711 34.8306 55.1013 36.9865L62.647 35.9849C62.0445 32.586 60.6837 29.3619 58.6608 26.5544C56.6379 23.7469 54.0102 21.4355 50.9768 19.7882L47.6383 26.6289Z" fill="white"/>
    <path d="M18.168 49.9682C20.5617 55.2109 24.7622 59.4172 30.0016 61.8182C35.241 64.2192 41.1695 64.6546 46.7034 63.0448C52.2374 61.435 57.0073 57.8876 60.1413 53.0508C63.2753 48.2141 64.5642 42.4111 63.7723 36.7024L54.2622 38.0216C54.7373 41.4465 53.964 44.928 52.0838 47.8299C50.2035 50.7317 47.3418 52.8599 44.0217 53.8257C40.7016 54.7915 37.1448 54.5303 34.0014 53.0898C30.858 51.6493 28.338 49.1258 26.9018 45.9804L18.168 49.9682Z" fill="#808080" fill-opacity="0.26"/>
    <path fill-rule="evenodd" clip-rule="evenodd" d="M16.8433 49.4739L27.3965 44.6554L27.8118 45.5651C29.1482 48.492 31.4932 50.8403 34.4183 52.1807C37.3434 53.5212 40.6532 53.7642 43.7427 52.8655C46.8322 51.9668 49.4952 49.9863 51.2448 47.2861C52.9945 44.5858 53.7141 41.3461 53.272 38.159L53.1346 37.1685L64.6257 35.5745L64.7631 36.565C65.588 42.5115 64.2454 48.5564 60.9808 53.5946C57.7162 58.6329 52.7476 62.3281 46.983 64.005C41.2185 65.6818 35.043 65.2283 29.5853 62.7273C24.1276 60.2262 19.7521 55.8447 17.2586 50.3836L16.8433 49.4739ZM19.513 50.4535C21.8626 55.0585 25.7011 58.7473 30.4185 60.9091C35.4396 63.21 41.121 63.6273 46.4244 62.0846C51.7278 60.5419 56.2989 57.1423 59.3024 52.5071C62.1242 48.1522 63.3851 42.98 62.898 37.8333L55.3582 38.8792C55.6018 42.2155 54.7522 45.551 52.9233 48.3736C50.9124 51.477 47.852 53.7531 44.3013 54.7859C40.7506 55.8188 36.9468 55.5394 33.5851 53.9989C30.5275 52.5977 28.0214 50.2384 26.4374 47.2919L19.513 50.4535Z" fill="white"/>
    <path d="M18.2184 50.0776C15.7815 44.8106 15.3356 38.8389 16.9634 33.2683C18.5912 27.6978 22.1823 22.9057 27.0718 19.7795L32.2437 27.8687C29.3103 29.7442 27.1558 32.6192 26.1792 35.9613C25.2026 39.3033 25.4701 42.886 26.9321 46.046L18.2184 50.0776Z" fill="#808080" fill-opacity="0.35"/>
    <path fill-rule="evenodd" clip-rule="evenodd" d="M18.7258 48.7412L25.6341 45.5449C24.4203 42.4003 24.2687 38.934 25.2193 35.681C26.1699 32.4279 28.164 29.5886 30.88 27.5924L26.7797 21.1792C22.518 24.1726 19.3895 28.5312 17.9232 33.549C16.457 38.5667 16.7464 43.9241 18.7258 48.7412ZM17.3108 50.4977C14.7724 45.0112 14.3079 38.7907 16.0035 32.988C17.6991 27.1854 21.4399 22.1936 26.5331 18.9372L27.3757 18.3985L33.6249 28.1727L32.7824 28.7113C30.0527 30.4567 28.0478 33.132 27.139 36.2419C26.2303 39.3519 26.4792 42.6858 27.8397 45.6263L28.2596 46.5339L17.7307 51.4053L17.3108 50.4977Z" fill="white"/>
    <path d="M39.9999 16.0002C35.3266 16.0002 30.755 17.3645 26.8462 19.9258L32.1083 27.9565C34.4534 26.4199 37.1962 25.6014 39.9999 25.6014L39.9999 16.0002Z" fill="#808080" fill-opacity="0.1"/>
    <path fill-rule="evenodd" clip-rule="evenodd" d="M25.4619 19.6372L26.2983 19.0891C30.3701 16.4212 35.1321 14.9999 40.0001 14.9999L41.0001 14.9999L41.0001 26.6011L40.0001 26.6011C37.3911 26.6011 34.8389 27.3628 32.6566 28.7927L31.8202 29.3408L25.4619 19.6372ZM32.4147 26.599C34.4337 25.4562 36.6851 24.7843 39.0001 24.6336L39.0001 17.0217C35.2044 17.1868 31.5082 18.2899 28.2428 20.2321L32.4147 26.599Z" fill="white"/>
    <path d="M73 16H139V28H73V16Z" fill="#CFCFCF" fill-opacity="0.1"/>
    <path d="M73 16H133V28H73V16Z" fill="#808080" fill-opacity="0.1"/>
    <path d="M73 33H139V45H73V33Z" fill="#CFCFCF" fill-opacity="0.1"/>
    <path d="M73 33H115V45H73V33Z" fill="#808080" fill-opacity="0.23"/>
    <path d="M73 50H139V62H73V50Z" fill="#CFCFCF" fill-opacity="0.1"/>
    <path d="M73 50H86V62H73V50Z" fill="#808080" fill-opacity="0.44"/>
</svg>
