<svg width="101" height="82" viewBox="0 0 101 82" fill="none" xmlns="http://www.w3.org/2000/svg">
<path fill-rule="evenodd" clip-rule="evenodd" d="M53.6096 0.0756745C65.2657 -1.05702 73.3752 10.771 81.692 19.1256C90.0669 27.5386 100.026 35.6712 100.908 47.589C101.836 60.1205 95.654 68.4529 85.9614 76.2893C77.0128 83.5243 65.1735 81.8879 53.7276 81.7386C42.5167 81.5923 30.6493 81.7584 21.4934 75.1995C10.6171 67.4082 -1.84087 60.9245 0.226948 47.589C2.27538 34.3784 20.5272 32.9298 30.441 24.106C39.0724 16.4236 42.1751 1.18684 53.6096 0.0756745Z" fill="#D12730" fill-opacity="0.04"/>
<ellipse cx="65" cy="19.0137" rx="1" ry="1.01369" fill="#D12730" fill-opacity="0.2"/>
<ellipse cx="35.5" cy="28.5205" rx="1.5" ry="1.52053" fill="#D12730" fill-opacity="0.2"/>
<circle cx="69.5" cy="34.5" r="1.5" fill="#D12730" fill-opacity="0.2"/>
<circle cx="51.5" cy="23" r="1" fill="#D12730" fill-opacity="0.2"/>
<circle cx="44.5" cy="14" r="1" fill="#D12730" fill-opacity="0.2"/>
<path d="M65.375 43.3333V43.8333H65.875H68.25C70.5947 43.8333 72.5 45.7178 72.5 48V71.3333C72.5 73.6155 70.5947 75.5 68.25 75.5H39.75C37.4053 75.5 35.5 73.6155 35.5 71.3333V48C35.5 45.7178 37.4053 43.8333 39.75 43.8333H42.125H42.625V43.3333V38.6667C42.625 32.5111 47.7128 27.5 54 27.5C60.2872 27.5 65.375 32.5111 65.375 38.6667V43.3333ZM60.6777 44.5929H61.1777V44.0929V39.8603C61.1777 35.957 57.9513 32.7998 54 32.7998C50.0487 32.7998 46.8223 35.957 46.8223 39.8603V44.0929V44.5929H47.3223H60.6777Z" fill="#F4CDCF" stroke="#D12730"/>
<path d="M64.5 57.5479C64.5 59.2376 63.1505 60.5958 61.5 60.5958C59.8495 60.5958 58.5 59.2376 58.5 57.5479C58.5 55.8582 59.8495 54.5 61.5 54.5C63.1505 54.5 64.5 55.8582 64.5 57.5479Z" fill="#D12730" fill-opacity="0.4" stroke="#D12730"/>
<ellipse cx="60.8398" cy="56.3412" rx="1.75" ry="1.77395" fill="white"/>
<path d="M50.5 57.5479C50.5 59.2376 49.1505 60.5958 47.5 60.5958C45.8495 60.5958 44.5 59.2376 44.5 57.5479C44.5 55.8582 45.8495 54.5 47.5 54.5C49.1505 54.5 50.5 55.8582 50.5 57.5479Z" fill="#D12730" fill-opacity="0.4" stroke="#D12730"/>
<ellipse cx="46.8398" cy="56.3412" rx="1.75" ry="1.77395" fill="white"/>
<path d="M51 66.1642C52.098 65.3992 55.2353 64.3283 59 66.1642" stroke="#D12730" stroke-linecap="round"/>
</svg>
