<svg width="790" height="540" viewBox="0 0 790 540" fill="none" xmlns="http://www.w3.org/2000/svg">
<rect width="790" height="540" fill="#F2F2F2"/>
<path opacity="0.5" d="M230.448 135.045C230.448 126.736 237.2 119.922 245.468 120.752C264.986 122.71 283.983 128.472 301.368 137.765C323.188 149.428 341.795 166.292 355.54 186.863C369.286 207.435 377.746 231.079 380.171 255.701C382.596 280.323 378.911 305.164 369.443 328.022C359.975 350.88 345.016 371.05 325.891 386.745C306.766 402.441 284.065 413.178 259.799 418.005C235.533 422.831 210.451 421.599 186.775 414.417C167.911 408.695 150.404 399.336 135.217 386.92C128.785 381.66 128.828 372.067 134.703 366.192C140.579 360.317 150.054 360.404 156.616 365.501C168.208 374.504 181.383 381.338 195.51 385.623C214.45 391.369 234.516 392.355 253.928 388.493C273.341 384.632 291.502 376.042 306.802 363.486C322.102 350.929 334.07 334.793 341.644 316.507C349.219 298.22 352.166 278.348 350.226 258.651C348.286 238.953 341.518 220.038 330.522 203.58C319.526 187.123 304.64 173.632 287.184 164.301C274.165 157.343 260.016 152.859 245.454 151.029C237.209 149.993 230.448 143.354 230.448 135.045Z" fill="#B3B3B3"/>
<path d="M126.879 357.668C120.523 363.021 110.962 362.245 106.271 355.387C93.6979 337.006 85.3258 316.007 81.8369 293.886C77.5645 266.796 80.7779 239.054 91.1299 213.658C101.482 188.262 118.579 166.179 140.572 149.796C158.531 136.418 179.198 127.256 201.038 122.903C209.186 121.278 216.565 127.408 217.368 135.678C218.171 143.948 212.082 151.209 203.976 153.037C187.592 156.731 172.105 163.827 158.547 173.926C140.952 187.033 127.275 204.699 118.993 225.016C110.712 245.333 108.141 267.527 111.559 289.198C114.193 305.898 120.306 321.799 129.439 335.894C133.957 342.868 133.234 352.316 126.879 357.668Z" fill="#E3E3E3"/>
<rect x="427.91" y="293.955" width="282.09" height="18.806" rx="9.40298" fill="#E3E3E3"/>
<rect opacity="0.5" x="427.91" y="293.955" width="117.537" height="18.806" rx="9.40298" fill="#B3B3B3"/>
<rect x="427.91" y="340.971" width="282.09" height="18.806" rx="9.40298" fill="#E3E3E3"/>
<rect opacity="0.5" x="427.91" y="340.971" width="244.478" height="18.806" rx="9.40298" fill="#B3B3B3"/>
<rect x="427.91" y="387.986" width="282.09" height="18.806" rx="9.40298" fill="#E3E3E3"/>
<rect opacity="0.5" x="427.91" y="387.986" width="188.06" height="18.806" rx="9.40298" fill="#B3B3B3"/>
<path opacity="0.3" d="M427.91 197.105L495.975 213.441C497.48 213.802 499.059 213.278 500.05 212.089L566.658 132.159C567.97 130.584 570.249 130.232 571.976 131.337L638.474 173.896C639.129 174.315 639.89 174.538 640.667 174.538H709.999" stroke="#B3B3B3" stroke-width="8.13582" stroke-linecap="round"/>
<path opacity="0.5" d="M427.91 246.941L495.886 160.838C497.288 159.062 499.87 158.771 501.631 160.191L567.415 213.217C568.387 214 569.665 214.294 570.881 214.014L637.728 198.619C638.842 198.362 640.013 198.586 640.953 199.236L709.999 246.941" stroke="#B3B3B3" stroke-width="8.13582" stroke-linecap="round"/>
</svg>
