<svg width="100" height="100" viewBox="0 0 100 100" fill="none" xmlns="http://www.w3.org/2000/svg">
<g clip-path="url(#clip0_2394_5811)">
<path fill-rule="evenodd" clip-rule="evenodd" d="M36.2928 96.1404C47.4148 99.8565 58.4676 93.329 68.9856 87.739C79.8689 81.9548 93.6065 76.8451 95.6731 64.5813C97.7219 52.4231 84.9855 44.7123 77.8895 34.8996C69.3232 23.0536 65.4958 5.36551 51.1475 3.00883C34.5712 0.286202 15.7927 8.43155 7.06063 23.266C-1.15212 37.2183 6.45107 53.9997 12.4012 68.8331C17.1773 80.7396 24.2801 92.1268 36.2928 96.1404Z" fill="#D12730" fill-opacity="0.04"/>
<path d="M47.0765 31.1476L47.0765 39.6971" stroke="#DD6067" stroke-width="1.87022" stroke-linecap="round"/>
<path d="M47.0765 80.3076L47.0765 88.8571" stroke="#DD6067" stroke-width="1.87022" stroke-linecap="round"/>
<path d="M17.1531 60.0023L25.7026 60.0023" stroke="#DD6067" stroke-width="1.87022" stroke-linecap="round"/>
<path d="M68.4505 60.0023L77 60.0023" stroke="#DD6067" stroke-width="1.87022" stroke-linecap="round"/>
<path d="M57.7635 31.1476L57.7635 39.6971" stroke="#DD6067" stroke-width="1.87022" stroke-linecap="round"/>
<path d="M57.7635 80.3076L57.7635 88.8571" stroke="#DD6067" stroke-width="1.87022" stroke-linecap="round"/>
<path d="M17.1532 49.3154L25.7027 49.3154" stroke="#DD6067" stroke-width="1.87022" stroke-linecap="round"/>
<path d="M68.4505 49.3154L77 49.3154" stroke="#DD6067" stroke-width="1.87022" stroke-linecap="round"/>
<path d="M36.3897 31.1475L36.3897 39.697" stroke="#DD6067" stroke-width="1.87022" stroke-linecap="round"/>
<path d="M36.3897 80.3075L36.3897 88.8571" stroke="#DD6067" stroke-width="1.87022" stroke-linecap="round"/>
<path d="M17.1531 70.6893L25.7026 70.6893" stroke="#DD6067" stroke-width="1.87022" stroke-linecap="round"/>
<path d="M68.4505 70.6893L77.0001 70.6893" stroke="#DD6067" stroke-width="1.87022" stroke-linecap="round"/>
<mask id="path-15-inside-1_2394_5811" fill="white">
<rect x="25.7026" y="38.6284" width="42.7478" height="42.7478" rx="1.85936"/>
</mask>
<rect x="25.7026" y="38.6284" width="42.7478" height="42.7478" rx="1.85936" fill="white" stroke="#DD6067" stroke-width="3.74043" mask="url(#path-15-inside-1_2394_5811)"/>
<ellipse cx="54.6548" cy="56.6621" rx="3.74044" ry="3.79163" transform="rotate(-0.637833 54.6548 56.6621)" fill="#D12730" fill-opacity="0.4"/>
<path d="M57.9302 56.6256C57.9507 58.4688 56.4949 59.9686 54.6919 59.9886C52.8888 60.0087 51.3999 58.5417 51.3794 56.6985C51.3589 54.8553 52.8148 53.3555 54.6178 53.3355C56.4208 53.3154 57.9097 54.7824 57.9302 56.6256Z" stroke="#D12730" stroke-opacity="0.56" stroke-width="0.929681"/>
<ellipse cx="53.935" cy="55.3803" rx="1.87022" ry="1.89582" transform="rotate(-0.637833 53.935 55.3803)" fill="white"/>
<ellipse cx="39.6941" cy="56.8286" rx="3.74044" ry="3.79163" transform="rotate(-0.637833 39.6941 56.8286)" fill="#D12730" fill-opacity="0.4"/>
<path d="M42.9695 56.7921C42.9901 58.6353 41.5342 60.1351 39.7312 60.1551C37.9282 60.1752 36.4393 58.7082 36.4188 56.865C36.3982 55.0218 37.8541 53.522 39.6571 53.502C41.4601 53.4819 42.949 54.9489 42.9695 56.7921Z" stroke="#D12730" stroke-opacity="0.56" stroke-width="0.929681"/>
<ellipse cx="38.9742" cy="55.5469" rx="1.87022" ry="1.89582" transform="rotate(-0.637833 38.9742 55.5469)" fill="white"/>
<path d="M52.0737 65.9947C50.9094 65.1642 47.5696 63.9824 43.5247 65.8995" stroke="#DD6067" stroke-width="0.929681" stroke-linecap="round"/>
<path d="M51.914 24.4096C50.6613 23.296 49.0435 22.6809 47.3673 22.6809C45.6912 22.6809 44.0734 23.296 42.8207 24.4096C42.7148 24.5012 42.6282 24.6129 42.5659 24.7382C42.5036 24.8636 42.4668 25.0001 42.4577 25.1398C42.4485 25.2794 42.4672 25.4195 42.5127 25.5519C42.5582 25.6843 42.6295 25.8064 42.7225 25.911C42.8156 26.0156 42.9285 26.1006 43.0546 26.1612C43.1808 26.2218 43.3178 26.2568 43.4576 26.264C43.5974 26.2712 43.7372 26.2506 43.869 26.2033C44.0007 26.1561 44.1218 26.0831 44.2251 25.9886C45.0909 25.2191 46.209 24.7941 47.3673 24.7941C48.5257 24.7941 49.6438 25.2191 50.5096 25.9886C50.7191 26.1749 50.994 26.2702 51.2739 26.2538C51.5537 26.2373 51.8156 26.1103 52.0018 25.9008C52.1881 25.6913 52.2834 25.4164 52.267 25.1365C52.2505 24.8567 52.1235 24.5948 51.914 24.4086V24.4096Z" fill="#DD6067" fill-opacity="0.5"/>
<path d="M47.3322 18.341C44.495 18.337 41.7632 19.4154 39.6936 21.3561C39.5888 21.45 39.5039 21.5638 39.4436 21.691C39.3834 21.8181 39.3492 21.956 39.343 22.0965C39.3368 22.2371 39.3587 22.3774 39.4074 22.5094C39.4562 22.6413 39.5308 22.7622 39.6269 22.865C39.7229 22.9677 39.8386 23.0503 39.967 23.1077C40.0954 23.1652 40.2339 23.1965 40.3746 23.1997C40.5152 23.2029 40.6551 23.178 40.786 23.1264C40.9169 23.0749 41.0361 22.9977 41.1368 22.8994C42.8172 21.3284 45.0318 20.4544 47.3322 20.4544C49.6326 20.4544 51.8472 21.3284 53.5276 22.8994C53.6283 22.9977 53.7475 23.0749 53.8784 23.1264C54.0093 23.178 54.1492 23.2029 54.2898 23.1997C54.4305 23.1965 54.569 23.1652 54.6974 23.1077C54.8258 23.0503 54.9415 22.9677 55.0375 22.865C55.1336 22.7622 55.2082 22.6413 55.257 22.5094C55.3057 22.3774 55.3276 22.2371 55.3214 22.0965C55.3152 21.956 55.281 21.8181 55.2208 21.691C55.1605 21.5638 55.0756 21.45 54.9708 21.3561C52.9012 19.4154 50.1694 18.337 47.3322 18.341Z" fill="#DD6067" fill-opacity="0.3"/>
<path d="M57.6482 17.9468C54.7992 15.4049 51.1145 14 47.2963 14C43.4782 14 39.7935 15.4049 36.9445 17.9468C36.8374 18.0383 36.7497 18.1502 36.6865 18.2761C36.6233 18.4019 36.5859 18.5391 36.5765 18.6796C36.5671 18.8201 36.5858 18.9611 36.6317 19.0943C36.6775 19.2274 36.7495 19.3501 36.8434 19.455C36.9373 19.5599 37.0512 19.645 37.1785 19.7053C37.3057 19.7656 37.4438 19.7999 37.5845 19.806C37.7251 19.8122 37.8656 19.7902 37.9977 19.7413C38.1298 19.6924 38.2507 19.6177 38.3535 19.5214C40.8149 17.3261 43.9979 16.1129 47.2961 16.1129C50.5943 16.1129 53.7772 17.3261 56.2387 19.5214C56.4476 19.7082 56.7222 19.8044 57.0021 19.7888C57.2819 19.7732 57.5441 19.647 57.7309 19.4381C57.9178 19.2291 58.014 18.9546 57.9984 18.6747C57.9827 18.3949 57.8566 18.1327 57.6477 17.9458L57.6482 17.9468Z" fill="#DD6067" fill-opacity="0.2"/>
<circle cx="14.5" cy="27.5" r="1.5" fill="#D12730" fill-opacity="0.2"/>
<circle cx="83.5" cy="55.5" r="1.5" fill="#D12730" fill-opacity="0.2"/>
<circle cx="14.5" cy="42.5" r="1.5" fill="#D12730" fill-opacity="0.2"/>
<circle cx="23" cy="18" r="1" fill="#D12730" fill-opacity="0.2"/>
<circle cx="38" cy="10" r="1" fill="#D12730" fill-opacity="0.2"/>
<circle cx="27" cy="33" r="1" fill="#D12730" fill-opacity="0.2"/>
<circle cx="63" cy="28" r="1" fill="#D12730" fill-opacity="0.2"/>
<circle cx="73" cy="40" r="1" fill="#D12730" fill-opacity="0.2"/>
<circle cx="74" cy="75" r="1" fill="#D12730" fill-opacity="0.2"/>
</g>
<defs>
<clipPath id="clip0_2394_5811">
<rect width="100" height="100" rx="8" fill="white"/>
</clipPath>
</defs>
</svg>
