<svg width="62" height="46" viewBox="0 0 62 46" fill="none" xmlns="http://www.w3.org/2000/svg">
    <path fill-rule="evenodd" clip-rule="evenodd" d="M0 8.84615V36C0 41.5228 4.47715 46 10 46H52C57.5228 46 62 41.5228 62 36V8.84615C62 3.96056 58.0394 0 53.1539 0H8.84615C3.96056 0 0 3.96056 0 8.84615ZM58 9.03106V8.84615C58 6.1697 55.8303 4 53.1539 4H8.84615C6.1697 4 4 6.1697 4 8.84615V9.03106L26.6885 23.5473C29.3169 25.229 32.6831 25.229 35.3115 23.5473L58 9.03106ZM4 13.7797V36C4 39.3137 6.68629 42 10 42H52C55.3137 42 58 39.3137 58 36V13.7797L37.4673 26.9167C33.5247 29.4392 28.4753 29.4392 24.5327 26.9167L4 13.7797Z" fill="white"/>
</svg>
