<svg width="88" height="88" viewBox="0 0 88 88" fill="none" xmlns="http://www.w3.org/2000/svg">
    <path d="M32.556 43.538L40.062 51.044L59.124 32L61.662 34.538L40.062 56.138L30 46.076L32.556 43.538Z" fill="white"/>
    <path fill-rule="evenodd" clip-rule="evenodd" d="M88 44C88 68.3005 68.3005 88 44 88C19.6995 88 0 68.3005 0 44C0 19.6995 19.6995 0 44 0C68.3005 0 88 19.6995 88 44ZM84 44C84 66.0914 66.0914 84 44 84C21.9086 84 4 66.0914 4 44C4 21.9086 21.9086 4 44 4C66.0914 4 84 21.9086 84 44Z" fill="white"/>
</svg>
