<?xml version="1.0" encoding="UTF-8"?>
<svg viewBox="0 0 263 263" xmlns="http://www.w3.org/2000/svg">
    <path d="M263 131.5C263 58.9 204.1 0 131.5 0S0 58.9 0 131.5c0 65.6 48.1 120 110.9 129.9v-91.9H77.5v-38h33.4v-29c0-33 19.6-51.2 49.7-51.2 14.4 0 29.4 2.6 29.4 2.6v32.4h-16.5c-16.3 0-21.4 10.1-21.4 20.5v24.7h36.4l-5.8 38h-30.6v91.9c62.8-9.9 110.9-64.3 110.9-129.9z" fill="#1877f2"/>
    <path d="M182.7 169.5l5.8-38H152v-24.7c0-10.4 5.1-20.5 21.4-20.5H190V53.9s-15-2.6-29.4-2.6c-30 0-49.7 18.2-49.7 51.2v29H77.5v38h33.4v91.9c6.7 1.1 13.6 1.6 20.5 1.6s13.9-.5 20.5-1.6v-91.9h30.8z" fill="#fff"/>
</svg>
