<svg width="133" height="30" viewBox="0 0 133 30" fill="none" xmlns="http://www.w3.org/2000/svg">
<g clip-path="url(#clip0_1640_75317)">
<path d="M13.1498 0.352539C10.7156 0.352539 8.43692 1.03174 6.48896 2.20061C5.9335 1.74905 5.23555 1.49771 4.50933 1.49752C4.50923 1.49752 4.50913 1.49752 4.50903 1.49752C2.7794 1.49758 1.36121 2.91577 1.3613 4.64516C1.3613 4.64547 1.3613 4.64577 1.3613 4.64607C1.36215 5.36813 1.61247 6.06046 2.05673 6.61341C0.869826 8.57243 0.179827 10.8678 0.179827 13.3211C0.178662 13.4206 0.19726 13.5194 0.234542 13.6117C0.271825 13.7039 0.32705 13.7879 0.39702 13.8587C0.466989 13.9295 0.550312 13.9857 0.642159 14.024C0.734006 14.0624 0.832553 14.0821 0.932089 14.0821C1.03162 14.0821 1.13017 14.0624 1.22202 14.024C1.31387 13.9857 1.39719 13.9295 1.46716 13.8587C1.53713 13.7879 1.59235 13.7039 1.62964 13.6117C1.66692 13.5194 1.68552 13.4206 1.68435 13.3211C1.68435 11.2015 2.26101 9.22389 3.26157 7.52265C3.65345 7.69294 4.07452 7.79291 4.5076 7.79357C4.50795 7.79357 4.50831 7.79357 4.50866 7.79357C6.23838 7.79362 7.65683 6.37541 7.65674 4.64593C7.65674 4.64581 7.65674 4.6457 7.65674 4.64558C7.6566 4.21659 7.55902 3.79927 7.39217 3.41019C9.0843 2.42476 11.0468 1.85748 13.1495 1.85748C13.249 1.85864 13.3478 1.84004 13.44 1.80277C13.5323 1.76549 13.6163 1.71027 13.6871 1.64031C13.7579 1.57035 13.8141 1.48704 13.8525 1.3952C13.8908 1.30337 13.9106 1.20484 13.9106 1.10532C13.9106 1.00579 13.8908 0.907263 13.8525 0.815428C13.8141 0.723593 13.7579 0.640279 13.6871 0.570319C13.6163 0.500359 13.5323 0.445144 13.44 0.407867C13.3478 0.370589 13.249 0.351993 13.1495 0.353157L13.1498 0.352539ZM4.50847 3.00232C5.01592 3.00249 5.46889 3.21788 5.78171 3.60958C5.78683 3.6158 5.79206 3.62194 5.79738 3.62799C6.02665 3.91801 6.15204 4.27612 6.15217 4.64594C6.15204 5.56213 5.42544 6.28867 4.50922 6.28902C4.13418 6.28833 3.77107 6.15954 3.47937 5.92393C3.47901 5.92367 3.47866 5.92342 3.4783 5.92316C3.09091 5.61141 2.8659 5.14248 2.86518 4.6452C2.8654 3.72902 3.59209 3.00249 4.50847 3.00232Z" fill="#00695C"/>
<path fill-rule="evenodd" clip-rule="evenodd" d="M5.92897 9.17657C5.80092 9.31028 5.72589 9.49494 5.73522 9.69754C5.74347 9.87299 5.81359 10.0425 5.9358 10.171C6.51982 10.7593 7.67135 11.9063 7.67135 11.9063L8.68781 10.8912C8.68781 10.8912 7.57446 9.77903 6.95629 9.16035C6.81864 9.02026 6.63448 8.96178 6.44034 8.9609C6.23795 8.95994 6.05695 9.04276 5.92892 9.17647L5.92897 9.17657ZM8.68785 10.891L5.54346 14.0351C5.20231 14.3762 5.20231 14.9293 5.54346 15.2705L12.4423 22.1684C12.7835 22.5096 13.3368 22.5096 13.678 22.1684L22.2038 13.6438C22.5449 13.3026 22.5449 12.7495 22.2037 12.4083L20.6049 10.8097L17.8801 8.08439L15.3046 5.51012C14.9633 5.16902 14.4102 5.16902 14.069 5.51012L8.68805 10.8903L8.68785 10.891ZM11.9414 7.63801C11.9414 7.63801 10.828 6.52584 10.2099 5.90716C10.0722 5.76707 9.88807 5.70859 9.69392 5.70771C9.28914 5.70577 8.9701 6.03907 8.98874 6.44424C8.997 6.6197 9.06712 6.78923 9.18932 6.91771C9.77334 7.50601 10.9249 8.65303 10.9249 8.65303L11.9413 7.63791L11.9414 7.63801ZM17.8796 8.08535C17.8796 8.08535 18.9919 6.97215 19.6107 6.35407C19.7508 6.21643 19.8093 6.0323 19.8102 5.83819C19.8121 5.43346 19.4788 5.11446 19.0735 5.1331C18.8981 5.14136 18.7285 5.21147 18.6 5.33366C18.0116 5.91759 16.8644 7.06897 16.8644 7.06897L17.8797 8.08529L17.8796 8.08535ZM20.6047 10.81C20.6047 10.81 21.717 9.69684 22.3358 9.07876C22.4759 8.94112 22.5343 8.757 22.5352 8.56288C22.5372 8.15815 22.2038 7.83916 21.7986 7.85779C21.6231 7.86605 21.4536 7.93616 21.3251 8.05835C20.7367 8.64229 19.5895 9.79366 19.5895 9.79366L20.6048 10.81L20.6047 10.81ZM19.0591 16.7881C19.0591 16.7881 20.1725 17.9003 20.7908 18.5188C20.9285 18.6589 21.1126 18.7173 21.3068 18.7182C21.7115 18.7202 22.0306 18.3869 22.0119 17.9817L22.0118 17.9819C22.0035 17.8064 21.9333 17.6368 21.8111 17.5083C21.2271 16.92 20.0756 15.7731 20.0756 15.7731L19.0592 16.7882L19.0591 16.7881ZM15.8053 20.0415C15.8053 20.0415 16.9187 21.1536 17.537 21.7721C17.6747 21.9122 17.8588 21.9707 18.053 21.9716C18.4577 21.9736 18.7768 21.6402 18.7581 21.235H18.758C18.7497 21.0596 18.6796 20.8901 18.5574 20.7616C17.9734 20.1733 16.8218 19.0263 16.8218 19.0263L15.8054 20.0414L15.8053 20.0415ZM9.82643 19.5535C9.82643 19.5535 8.71411 20.6667 8.09551 21.2849C7.95542 21.4225 7.89692 21.6067 7.89604 21.8008C7.89411 22.2055 8.22744 22.5245 8.63267 22.5059H8.63251C8.80799 22.4976 8.97754 22.4275 9.10604 22.3053C9.69444 21.7214 10.8416 20.57 10.8416 20.57L9.8272 19.554L9.82643 19.5535ZM7.10222 16.8299C7.10222 16.8299 5.9899 17.9431 5.3713 18.5613C5.23121 18.699 5.17271 18.8831 5.17183 19.0772C5.1699 19.482 5.50323 19.8009 5.90846 19.7823H5.9083C6.08378 19.774 6.25333 19.7039 6.38183 19.5818C6.97023 18.9978 8.11739 17.8464 8.11739 17.8464L7.10221 16.8296L7.10222 16.8299ZM14.589 9.05953C14.7331 8.91311 14.9294 8.83129 15.1294 8.8342C15.2721 8.83623 15.4086 8.8814 15.5209 8.96374L16.9369 10.002C17.2116 10.1991 17.2926 10.5734 17.1284 10.8869C16.9641 11.2003 16.6028 11.3609 16.2744 11.2664L16.8 13.3214C16.8955 13.6948 16.6657 14.0909 16.2865 14.2066L12.4553 15.3763L13.1629 18.1122C13.2635 18.4871 13.034 18.8883 12.6519 19.0052C12.2697 19.1221 11.8816 18.9099 11.7878 18.5328L10.9054 15.1203C10.8087 14.7465 11.0384 14.3493 11.4183 14.2332L15.2511 13.063L14.8974 11.6799C14.6602 11.9429 14.2766 12.0067 13.9889 11.8311C13.7011 11.6555 13.5929 11.2914 13.7326 10.969L14.4292 9.29965C14.4664 9.21061 14.5208 9.12899 14.589 9.05961L14.589 9.05953Z" fill="#00695C"/>
<path d="M14.6722 27.8152C17.1064 27.8152 19.3851 27.1359 21.3331 25.967C21.8886 26.4186 22.5865 26.6699 23.3127 26.6701C23.3129 26.6701 23.313 26.6701 23.3131 26.6701C25.0428 26.6701 26.461 25.2519 26.4609 23.5225C26.4609 23.5222 26.4609 23.5218 26.4609 23.5215C26.46 22.7994 26.2097 22.107 25.7655 21.5542C26.9519 19.596 27.642 17.3005 27.642 14.8472C27.6433 14.7476 27.6248 14.6488 27.5875 14.5564C27.5503 14.464 27.4951 14.38 27.4251 14.3091C27.3551 14.2383 27.2717 14.182 27.1799 14.1436C27.088 14.1052 26.9894 14.0854 26.8898 14.0854C26.7902 14.0854 26.6916 14.1052 26.5997 14.1436C26.5078 14.182 26.4244 14.2383 26.3544 14.3091C26.2845 14.38 26.2292 14.464 26.192 14.5564C26.1548 14.6488 26.1362 14.7476 26.1375 14.8472C26.1375 16.9669 25.5608 18.9445 24.5603 20.6457C24.1684 20.4754 23.7473 20.3755 23.3143 20.3748C23.3139 20.3748 23.3135 20.3748 23.3132 20.3748C21.5835 20.3747 20.165 21.793 20.1651 23.5224C20.1653 23.9514 20.2628 24.3688 20.4297 24.7578C18.7376 25.7433 16.7749 26.3105 14.6723 26.3105C14.5727 26.3093 14.4739 26.3278 14.3815 26.365C14.2891 26.4023 14.2051 26.4575 14.1342 26.5275C14.0633 26.5974 14.0071 26.6808 13.9687 26.7726C13.9303 26.8645 13.9105 26.9631 13.9105 27.0627C13.9105 27.1623 13.9303 27.2609 13.9687 27.3528C14.0071 27.4446 14.0633 27.528 14.1342 27.598C14.2051 27.6679 14.2891 27.7231 14.3815 27.7604C14.4739 27.7976 14.5727 27.8161 14.6723 27.8149L14.6722 27.8152ZM23.3135 25.1658C22.8061 25.1658 22.3531 24.9502 22.0403 24.5585C22.0352 24.5523 22.0299 24.5462 22.0246 24.5401C21.7953 24.2501 21.6699 23.892 21.6698 23.5222C21.67 22.606 22.3966 21.8794 23.3128 21.8791C23.6878 21.8798 24.0509 22.0086 24.3426 22.2442C24.343 22.2444 24.3433 22.2447 24.3437 22.245C24.7311 22.5567 24.9561 23.0257 24.9568 23.5229C24.9565 24.4391 24.2299 25.1657 23.3135 25.1658Z" fill="#00695C"/>
<path d="M41.3084 8.37576H37.1294V19.966H35.4238V8.37576H31.2543V6.96484H41.3084V8.37576Z" fill="#00695C"/>
<path d="M44.6474 11.474C45.3796 10.5751 46.3321 10.1257 47.5048 10.1257C49.5467 10.1257 50.5765 11.2776 50.5944 13.5813V19.9658H48.9424V13.5724C48.9364 12.8759 48.7757 12.361 48.4602 12.0277C48.1507 11.6943 47.6655 11.5276 47.0047 11.5276C46.469 11.5276 45.9987 11.6705 45.5939 11.9562C45.1891 12.242 44.8736 12.617 44.6473 13.0813V19.9659H42.9959V6.25H44.6479V11.4736L44.6474 11.474Z" fill="#00695C"/>
<path d="M54.8633 19.9661H53.211V10.3044H54.8633V19.9661ZM53.0768 7.74157C53.0768 7.47369 53.1571 7.24748 53.3179 7.06295C53.4846 6.8784 53.7286 6.78613 54.0501 6.78613C54.3715 6.78613 54.6156 6.8784 54.7823 7.06295C54.949 7.24749 55.0323 7.4737 55.0323 7.74157C55.0323 8.00945 54.949 8.23269 54.7823 8.41127C54.6156 8.58986 54.3715 8.67915 54.0501 8.67915C53.7286 8.67915 53.4846 8.58986 53.3179 8.41127C53.1572 8.23267 53.0769 8.00944 53.0769 7.74157H53.0768Z" fill="#00695C"/>
<path d="M59.0595 10.3046L59.1131 11.519C59.8512 10.5903 60.8156 10.126 62.0062 10.126C64.0481 10.126 65.0779 11.2779 65.0957 13.5816V19.9661H63.4438V13.5727C63.4378 12.8762 63.2771 12.3613 62.9616 12.0279C62.652 11.6946 62.1669 11.5279 61.5061 11.5279C60.9703 11.5279 60.5001 11.6708 60.0953 11.9565C59.6905 12.2423 59.375 12.6173 59.1487 13.0816V19.9662H57.4968V10.3045H59.0594L59.0595 10.3046Z" fill="#00695C"/>
<path d="M67.2118 15.0549C67.2118 13.5489 67.56 12.3523 68.2565 11.4654C68.953 10.5724 69.8757 10.126 71.0247 10.126C72.2033 10.126 73.123 10.5427 73.7838 11.3761L73.8642 10.3045H75.3732V19.7339C75.3732 20.984 75.0012 21.9692 74.2571 22.6895C73.5189 23.4098 72.5248 23.7699 71.2746 23.7699C70.5781 23.7699 69.8965 23.6211 69.2298 23.3234C68.5631 23.0258 68.0541 22.618 67.7029 22.1001L68.5601 21.109C69.2685 21.9841 70.1346 22.4216 71.1585 22.4216C71.9622 22.4216 72.5873 22.1954 73.0337 21.743C73.4861 21.2906 73.7124 20.6536 73.7124 19.8321V19.0017C73.0516 19.7636 72.1498 20.1446 71.0068 20.1446C69.8758 20.1446 68.959 19.6892 68.2566 18.7784C67.5601 17.8677 67.2118 16.6265 67.2118 15.0549ZM68.8726 15.2425C68.8726 16.3318 69.0958 17.1891 69.5423 17.8141C69.9888 18.4332 70.6138 18.7428 71.4175 18.7428C72.4593 18.7428 73.2242 18.2695 73.7123 17.323V12.9119C73.2063 11.9892 72.4473 11.5279 71.4353 11.5279C70.6317 11.5279 70.0036 11.8404 69.5513 12.4655C69.0988 13.0905 68.8726 14.0162 68.8726 15.2425Z" fill="#00695C"/>
<path d="M83.4818 17.4034C83.4818 16.9569 83.3122 16.6117 82.9729 16.3676C82.6395 16.1176 82.0531 15.9033 81.2138 15.7247C80.3804 15.5461 79.7166 15.3318 79.2226 15.0818C78.7344 14.8318 78.3713 14.5341 78.1332 14.1888C77.901 13.8436 77.7849 13.4328 77.7849 12.9566C77.7849 12.1648 78.1183 11.4951 78.785 10.9475C79.4577 10.3998 80.3149 10.126 81.3567 10.126C82.452 10.126 83.339 10.4087 84.0176 10.9743C84.7021 11.5398 85.0444 12.2631 85.0444 13.1441H83.3836C83.3836 12.6917 83.1901 12.3018 82.8032 11.9743C82.4222 11.6469 81.94 11.4832 81.3566 11.4832C80.7554 11.4832 80.2851 11.6142 79.9458 11.8761C79.6065 12.138 79.4368 12.4803 79.4368 12.903C79.4368 13.3018 79.5946 13.6024 79.9101 13.8048C80.2256 14.0072 80.7941 14.2007 81.6156 14.3852C82.443 14.5698 83.1127 14.79 83.6247 15.046C84.1366 15.302 84.5146 15.6115 84.7587 15.9747C85.0087 16.3318 85.1337 16.7694 85.1337 17.2873C85.1337 18.1505 84.7884 18.844 84.0979 19.3678C83.4074 19.8857 82.5115 20.1447 81.4101 20.1447C80.6363 20.1447 79.9517 20.0078 79.3564 19.7339C78.7611 19.4601 78.2938 19.0791 77.9545 18.591C77.6211 18.0969 77.4545 17.5641 77.4545 16.9927H79.1064C79.1362 17.5463 79.3564 17.9868 79.7672 18.3142C80.1839 18.6356 80.7316 18.7963 81.4102 18.7963C82.0353 18.7963 82.5353 18.6713 82.9104 18.4213C83.2913 18.1653 83.4818 17.8261 83.4818 17.4034Z" fill="#00695C"/>
<path d="M87.5455 19.9661V6.96533H91.7959C93.2067 6.96533 94.2663 7.25701 94.9747 7.84037C95.689 8.42372 96.0462 9.28688 96.0462 10.4298C96.0462 11.037 95.8736 11.5758 95.5283 12.0461C95.183 12.5104 94.7127 12.8706 94.1175 13.1266C94.8199 13.323 95.3735 13.698 95.7783 14.2517C96.189 14.7993 96.3944 15.4541 96.3944 16.2161C96.3944 17.3829 96.0164 18.2996 95.2603 18.9663C94.5043 19.6331 93.4357 19.9664 92.0547 19.9664H87.5453L87.5455 19.9661ZM89.2599 13.8852V18.5642H92.0906C92.8883 18.5642 93.5163 18.3588 93.9746 17.9481C94.4389 17.5314 94.6711 16.9599 94.6711 16.2336C94.6711 14.668 93.8198 13.8852 92.1173 13.8852L89.2599 13.8852ZM89.2599 12.5101H91.8494C92.5995 12.5101 93.1978 12.3226 93.6442 11.9476C94.0967 11.5725 94.3229 11.0636 94.3229 10.4206C94.3229 9.70631 94.1145 9.18841 93.6978 8.86696C93.2811 8.53955 92.6471 8.37584 91.7959 8.37584H89.2599L89.2599 12.5101Z" fill="#00695C"/>
<path d="M98.2425 15.046C98.2425 14.0995 98.427 13.2482 98.7961 12.4923C99.1711 11.7363 99.689 11.1529 100.35 10.7421C101.016 10.3313 101.775 10.126 102.627 10.126C103.942 10.126 105.005 10.5814 105.815 11.4921C106.63 12.4029 107.038 13.6143 107.038 15.1264V15.2424C107.038 16.183 106.856 17.0283 106.493 17.7784C106.136 18.5225 105.621 19.1029 104.948 19.5196C104.282 19.9363 103.514 20.1447 102.645 20.1447C101.335 20.1447 100.272 19.6893 99.4569 18.7785C98.6479 17.8674 98.2435 16.662 98.2435 15.1623V15.0463L98.2425 15.046ZM99.9033 15.2425C99.9033 16.314 100.15 17.1742 100.644 17.8231C101.144 18.472 101.811 18.7964 102.645 18.7964C103.484 18.7964 104.151 18.469 104.645 17.8141C105.139 17.1534 105.386 16.2307 105.386 15.046C105.386 13.9864 105.133 13.1292 104.627 12.4743C104.127 11.8136 103.46 11.4832 102.627 11.4832C101.811 11.4832 101.153 11.8076 100.653 12.4565C100.153 13.1054 99.9033 14.034 99.9033 15.2425Z" fill="#00695C"/>
<path d="M115.075 19.9662C114.98 19.7757 114.903 19.4363 114.843 18.9482C114.075 19.7459 113.159 20.1447 112.093 20.1447C111.14 20.1447 110.358 19.8768 109.745 19.3411C109.137 18.7994 108.834 18.1148 108.834 17.2873C108.834 16.2813 109.215 15.5015 109.977 14.9478C110.745 14.3883 111.822 14.1085 113.209 14.1085H114.816V13.3495C114.816 12.772 114.644 12.3137 114.298 11.9744C113.953 11.6291 113.444 11.4565 112.772 11.4565C112.182 11.4565 111.688 11.6053 111.289 11.9029C110.89 12.2006 110.691 12.5607 110.691 12.9834H109.03C109.03 12.5012 109.2 12.0369 109.539 11.5904C109.884 11.1379 110.349 10.7808 110.932 10.5189C111.521 10.2569 112.167 10.126 112.87 10.126C113.983 10.126 114.855 10.4058 115.486 10.9653C116.117 11.519 116.444 12.2839 116.468 13.2601V17.7069C116.468 18.5939 116.581 19.2993 116.808 19.8232V19.966H115.075L115.075 19.9662ZM112.334 18.7071C112.852 18.7071 113.343 18.5732 113.807 18.3053C114.272 18.0374 114.608 17.6892 114.816 17.2606V15.2782H113.522C111.498 15.2782 110.486 15.8705 110.486 17.0551C110.486 17.573 110.658 17.9778 111.004 18.2695C111.349 18.5612 111.792 18.7071 112.334 18.7071Z" fill="#00695C"/>
<path d="M123.741 11.7874C123.491 11.7457 123.221 11.7249 122.929 11.7249C121.845 11.7249 121.11 12.1863 120.723 13.109V19.9667H119.071V10.305H120.679L120.705 11.4212C121.247 10.558 122.015 10.1265 123.009 10.1265C123.331 10.1265 123.575 10.1681 123.741 10.2515L123.741 11.7874Z" fill="#00695C"/>
<path d="M124.852 15.0549C124.852 13.5727 125.203 12.3821 125.905 11.4832C126.608 10.5784 127.527 10.126 128.664 10.126C129.795 10.126 130.691 10.5129 131.352 11.2868V6.25098H133.004V19.9669H131.486L131.406 18.9311C130.745 19.7406 129.825 20.1454 128.647 20.1454C127.527 20.1454 126.614 19.6871 125.905 18.7703C125.203 17.8536 124.852 16.6571 124.852 15.1808V15.0558L124.852 15.0549ZM126.503 15.2425C126.503 16.3378 126.73 17.195 127.182 17.8141C127.635 18.4332 128.26 18.7428 129.057 18.7428C130.105 18.7428 130.87 18.2725 131.352 17.3319V12.8939C130.858 11.9832 130.099 11.5278 129.075 11.5278C128.266 11.5278 127.635 11.8403 127.182 12.4654C126.73 13.0904 126.503 14.0162 126.503 15.2425Z" fill="#00695C"/>
<path d="M115.987 27.6318H116.788C116.727 28.2075 116.51 28.6872 116.137 29.0711C115.765 29.4549 115.214 29.6468 114.485 29.6468C113.779 29.6468 113.209 29.3951 112.775 28.8917C112.344 28.3855 112.124 27.7138 112.116 26.8767V26.2259C112.116 25.3748 112.334 24.6921 112.771 24.1775C113.21 23.663 113.805 23.4058 114.556 23.4058C115.243 23.4058 115.771 23.5949 116.141 23.9731C116.511 24.3514 116.727 24.8395 116.788 25.4374H115.987C115.926 25.0147 115.79 24.6809 115.578 24.4362C115.367 24.1887 115.026 24.0649 114.556 24.0649C114.019 24.0649 113.612 24.2624 113.334 24.6573C113.056 25.0523 112.917 25.5723 112.917 26.2176V26.8308C112.917 27.4288 113.043 27.9391 113.296 28.3618C113.549 28.7818 113.946 28.9918 114.485 28.9918C114.997 28.9918 115.357 28.8722 115.566 28.633C115.777 28.3938 115.918 28.06 115.987 27.6318Z" fill="#00695C"/>
<path d="M118.603 23.1553V29.5631H117.827V23.1553H118.603Z" fill="#00695C"/>
<path d="M119.638 27.2603C119.638 26.6067 119.821 26.0616 120.188 25.625C120.556 25.1855 121.055 24.9658 121.686 24.9658C122.317 24.9658 122.817 25.1814 123.184 25.6124C123.551 26.0408 123.739 26.5761 123.747 27.2186V27.3563C123.747 28.0099 123.562 28.555 123.192 28.9917C122.825 29.4283 122.326 29.6467 121.694 29.6467C121.06 29.6467 120.558 29.4283 120.188 28.9917C119.821 28.555 119.638 28.0099 119.638 27.3563L119.638 27.2603ZM120.41 27.3563C120.41 27.8041 120.515 28.192 120.727 28.5202C120.941 28.8484 121.263 29.0125 121.694 29.0125C122.114 29.0125 122.431 28.8512 122.646 28.5286C122.86 28.2032 122.968 27.8166 122.971 27.3688V27.2604C122.971 26.8182 122.864 26.4316 122.65 26.1006C122.436 25.7669 122.114 25.6 121.686 25.6C121.261 25.6 120.941 25.7669 120.727 26.1006C120.515 26.4316 120.41 26.8182 120.41 27.2604L120.41 27.3563Z" fill="#00695C"/>
<path d="M127.517 29.5632L127.5 29.1169C127.205 29.4701 126.766 29.6467 126.182 29.6467C125.739 29.6467 125.382 29.516 125.11 29.2545C124.837 28.9931 124.701 28.562 124.701 27.9612V25.0493H125.473V27.9696C125.473 28.3756 125.557 28.6482 125.727 28.7872C125.899 28.9235 126.091 28.9917 126.303 28.9917C126.884 28.9917 127.276 28.7733 127.479 28.3367V25.0494H128.255V29.5633L127.517 29.5632Z" fill="#00695C"/>
<path d="M132.341 29.5632L132.303 29.0792C131.995 29.4575 131.565 29.6466 131.014 29.6466C130.486 29.6466 130.059 29.4324 129.734 29.0041C129.408 28.5758 129.243 28.0377 129.237 27.3896V27.2687C129.237 26.5789 129.4 26.0227 129.725 25.5999C130.053 25.1772 130.486 24.9658 131.023 24.9658C131.554 24.9658 131.971 25.1438 132.274 25.4998V23.1553H133.05V29.5631L132.341 29.5632ZM130.013 27.3563C130.013 27.8041 130.108 28.1893 130.297 28.5119C130.486 28.8317 130.789 28.9917 131.206 28.9917C131.685 28.9917 132.041 28.7733 132.274 28.3367V26.2592C132.043 25.8309 131.69 25.6167 131.214 25.6167C130.795 25.6167 130.489 25.7808 130.297 26.109C130.108 26.4344 130.013 26.821 130.013 27.2687L130.013 27.3563Z" fill="#00695C"/>
<path d="M108.491 23.5479H109.283V27.6119C109.283 28.063 109.183 28.4385 108.982 28.7383C108.781 29.0381 108.514 29.2637 108.182 29.415C107.851 29.5635 107.493 29.6378 107.105 29.6378C106.698 29.6378 106.329 29.5635 105.999 29.415C105.672 29.2637 105.412 29.0381 105.219 28.7383C105.029 28.4385 104.934 28.063 104.934 27.6119V23.5479H105.722V27.6119C105.722 27.9255 105.78 28.184 105.896 28.3876C106.011 28.5911 106.172 28.7424 106.379 28.8414C106.588 28.9405 106.83 28.99 107.105 28.99C107.382 28.99 107.625 28.9405 107.831 28.8414C108.04 28.7424 108.202 28.5911 108.318 28.3876C108.433 28.184 108.491 27.9255 108.491 27.6119V23.5479Z" fill="#00695C"/>
<path d="M104.019 28.9988V29.6465H100.838V28.9988H104.019ZM100.999 23.6392V29.6465H100.202V23.6392H100.999ZM103.598 26.222V26.8698H100.838V26.222H103.598ZM103.978 23.6392V24.2911H100.838V23.6392H103.978Z" fill="#00695C"/>
</g>
<defs>
<clipPath id="clip0_1640_75317">
<rect width="133" height="29.2931" fill="white" transform="translate(0 0.353516)"/>
</clipPath>
</defs>
</svg>
