<svg width="100" height="100" viewBox="0 0 100 100" fill="none" xmlns="http://www.w3.org/2000/svg">
<path fill-rule="evenodd" clip-rule="evenodd" d="M57.3017 98.3191C71.2445 95.9221 81.6088 85.441 89.107 73.3834C95.4369 63.2046 97.2908 50.9979 93.8838 39.4926C90.7436 28.888 81.5306 22.6094 72.2911 16.5965C60.3813 8.84579 48.2104 -3.80592 34.8881 1.09902C21.0112 6.20813 18.5808 23.8102 14.179 37.9919C9.01607 54.6259 -1.98385 73.1542 8.13106 87.3047C18.4405 101.727 39.8875 101.313 57.3017 98.3191Z" fill="#D12730" fill-opacity="0.04"/>
<circle cx="51.5" cy="13.5" r="1.5" fill="#D12730" fill-opacity="0.2"/>
<circle cx="13.5" cy="72.5" r="1.5" fill="#D12730" fill-opacity="0.2"/>
<circle cx="74.5" cy="64.5" r="1.5" fill="#D12730" fill-opacity="0.2"/>
<circle cx="35" cy="8" r="1" fill="#D12730" fill-opacity="0.2"/>
<circle cx="30" cy="16" r="1" fill="#D12730" fill-opacity="0.2"/>
<circle cx="18" cy="58" r="1" fill="#D12730" fill-opacity="0.2"/>
<circle cx="81" cy="73" r="1" fill="#D12730" fill-opacity="0.2"/>
<circle cx="22" cy="83" r="1" fill="#D12730" fill-opacity="0.2"/>
<circle cx="44" cy="8" r="1" fill="#D12730" fill-opacity="0.2"/>
<path d="M70.1264 50.0796C70.8031 48.3939 70.8376 46.5184 70.2234 44.8089C69.6091 43.0994 68.3889 41.6747 66.7941 40.8051C66.6619 40.7307 66.5162 40.6833 66.3655 40.6657C66.2148 40.6481 66.0621 40.6606 65.9163 40.7024C65.7705 40.7443 65.6345 40.8147 65.5161 40.9096C65.3977 41.0045 65.2994 41.122 65.2268 41.2552C65.1542 41.3884 65.1088 41.5347 65.0933 41.6856C65.0777 41.8365 65.0923 41.989 65.1361 42.1343C65.18 42.2795 65.2523 42.4146 65.3488 42.5316C65.4453 42.6487 65.564 42.7454 65.6982 42.8162C66.8004 43.4173 67.6436 44.4018 68.0681 45.5833C68.4926 46.7647 68.4688 48.0608 68.0012 49.2259C67.8881 49.5078 67.8916 49.8232 68.0109 50.1026C68.1303 50.382 68.3557 50.6025 68.6377 50.7157C68.9196 50.8288 69.235 50.8254 69.5144 50.706C69.7937 50.5867 70.0143 50.3612 70.1275 50.0793L70.1264 50.0796Z" fill="#DD6067"/>
<path d="M74.6498 43.2177C73.6141 40.3225 71.5131 37.9314 68.7753 36.5319C68.6412 36.4594 68.4939 36.4144 68.3422 36.3996C68.1904 36.3848 68.0373 36.4004 67.8916 36.4456C67.746 36.4907 67.6109 36.5645 67.4942 36.6626C67.3774 36.7606 67.2815 36.881 67.2119 37.0167C67.1423 37.1523 67.1005 37.3005 67.0889 37.4525C67.0774 37.6046 67.0963 37.7574 67.1445 37.902C67.1928 38.0466 67.2695 38.1801 67.37 38.2947C67.4706 38.4093 67.593 38.5027 67.7301 38.5694C69.9483 39.7075 71.6512 41.6459 72.4942 43.9922C73.3372 46.3385 73.2574 48.9174 72.2708 51.207C72.2075 51.3457 72.1725 51.4957 72.1679 51.6481C72.1633 51.8004 72.1891 51.9522 72.2439 52.0945C72.2987 52.2367 72.3814 52.3666 72.4871 52.4765C72.5928 52.5864 72.7193 52.6741 72.8593 52.7345C72.9993 52.7948 73.15 52.8266 73.3024 52.8279C73.4549 52.8293 73.6061 52.8002 73.7471 52.7424C73.8882 52.6845 74.0163 52.5991 74.1239 52.4911C74.2315 52.3831 74.3164 52.2547 74.3738 52.1134C75.5948 49.2914 75.6935 46.11 74.6498 43.2177Z" fill="#DD6067"/>
<path d="M78.8458 53.6314C80.3944 49.7941 80.4769 45.5211 79.0777 41.6269C77.6785 37.7327 74.8954 34.4894 71.2587 32.5152C71.1262 32.4395 70.9798 32.391 70.8283 32.3727C70.6768 32.3544 70.5232 32.3665 70.3764 32.4084C70.2297 32.4502 70.0928 32.521 69.9738 32.6166C69.8547 32.7121 69.756 32.8305 69.6834 32.9647C69.6108 33.0989 69.5657 33.2463 69.5509 33.3982C69.536 33.5501 69.5517 33.7034 69.597 33.8492C69.6422 33.9949 69.7161 34.1302 69.8144 34.247C69.9126 34.3637 70.0333 34.4597 70.1691 34.5292C73.3102 36.2352 75.7139 39.037 76.9226 42.4009C78.1313 45.7649 78.0604 49.4558 76.7234 52.7708C76.6094 53.0524 76.6119 53.3677 76.7304 53.6474C76.8489 53.9271 77.0736 54.1483 77.3552 54.2623C77.6367 54.3763 77.952 54.3738 78.2317 54.2553C78.5114 54.1368 78.7326 53.912 78.8466 53.6305L78.8458 53.6314Z" fill="#DD6067"/>
<rect x="18.0275" y="24.1378" width="36.9255" height="62.7733" rx="0.923137" transform="rotate(-12 18.0275 24.1378)" fill="white" stroke="#DD6067" stroke-width="1.84627"/>
<rect x="31.9761" y="24.1798" width="9.23137" height="1.84627" rx="0.923137" transform="rotate(-12 31.9761 24.1798)" fill="#DD6067"/>
<rect x="41.9087" y="22.0687" width="1.84627" height="1.84627" rx="0.923137" transform="rotate(-12 41.9087 22.0687)" fill="#DD6067"/>
<ellipse cx="50.1941" cy="45.6556" rx="4.01947" ry="4.07449" transform="rotate(-11.7948 50.1941 45.6556)" fill="#D12730" fill-opacity="0.4"/>
<path d="M53.6398 44.9361C54.0447 46.8751 52.8216 48.759 50.9249 49.1551C49.0282 49.5512 47.1534 48.3141 46.7485 46.3751C46.3436 44.4361 47.5667 42.5522 49.4634 42.1561C51.3601 41.7601 53.2349 42.9971 53.6398 44.9361Z" stroke="#D12730" stroke-opacity="0.56" stroke-width="0.999034"/>
<ellipse cx="49.1687" cy="44.4539" rx="2.00973" ry="2.03724" transform="rotate(-11.7948 49.1687 44.4539)" fill="white"/>
<ellipse cx="34.4559" cy="48.942" rx="4.01947" ry="4.07449" transform="rotate(-11.7948 34.4559 48.942)" fill="#D12730" fill-opacity="0.4"/>
<path d="M37.9016 48.2225C38.3065 50.1615 37.0834 52.0454 35.1867 52.4415C33.29 52.8375 31.4152 51.6005 31.0103 49.6615C30.6054 47.7225 31.8285 45.8386 33.7252 45.4425C35.6219 45.0464 37.4967 46.2835 37.9016 48.2225Z" stroke="#D12730" stroke-opacity="0.56" stroke-width="0.999034"/>
<ellipse cx="33.4305" cy="47.7404" rx="2.00973" ry="2.03724" transform="rotate(-11.7948 33.4305 47.7404)" fill="white"/>
<path d="M40.5045 58.0492C41.4952 56.8742 44.657 54.7538 49.3788 55.6713" stroke="#DD6067" stroke-width="0.999034" stroke-linecap="round"/>
</svg>
