<svg width="95" height="76" viewBox="0 0 95 76" fill="none" xmlns="http://www.w3.org/2000/svg">
<path fill-rule="evenodd" clip-rule="evenodd" d="M50.3941 0.0701373C61.2423 -0.979674 68.7898 9.98289 76.5302 17.7262C84.3247 25.5235 93.5934 33.0611 94.4145 44.1068C95.278 55.7214 89.5245 63.4441 80.5036 70.7072C72.1753 77.4127 61.1565 75.8961 50.5039 75.7577C40.07 75.6221 29.0251 75.776 20.5037 69.6971C10.3812 62.4759 -1.21329 56.4666 0.711219 44.1068C2.61768 31.8629 19.6045 30.5203 28.8312 22.3421C36.8644 15.2218 39.752 1.1 50.3941 0.0701373Z" fill="#00695C" fill-opacity="0.04"/>
<path d="M24.5 30.3833V63.8897C24.5 64.9943 25.3842 65.8897 26.4888 65.8897H76.5264C77.631 65.8897 78.5 65.0072 78.5 63.9026V30.368C78.5 29.2635 77.6046 28.3833 76.5 28.3833H26.5C25.3954 28.3833 24.5 29.2787 24.5 30.3833Z" fill="white"/>
<path d="M25 63.8897V30.3833C25 29.5549 25.6716 28.8833 26.5 28.8833H76.5C77.3334 28.8833 78 29.5446 78 30.368V63.9026C78 64.7355 77.3504 65.3897 76.5264 65.3897H26.4888C25.664 65.3897 25 64.7218 25 63.8897Z" stroke="#00695C" stroke-opacity="0.56"/>
<path opacity="0.15" d="M50.6866 52.2138C51.5091 52.2138 52.1759 51.5378 52.1759 50.704C52.1759 49.8703 51.5091 49.1943 50.6866 49.1943C49.8641 49.1943 49.1973 49.8703 49.1973 50.704C49.1973 51.5378 49.8641 52.2138 50.6866 52.2138Z" fill="white"/>
<path opacity="0.5" d="M56.3427 46.4769C57.1653 46.4769 57.8321 45.801 57.8321 44.9672C57.8321 44.1334 57.1653 43.4575 56.3427 43.4575C55.5202 43.4575 54.8534 44.1334 54.8534 44.9672C54.8534 45.801 55.5202 46.4769 56.3427 46.4769Z" fill="white"/>
<path d="M45.0264 46.4769C45.849 46.4769 46.5158 45.801 46.5158 44.9672C46.5158 44.1334 45.849 43.4575 45.0264 43.4575C44.2039 43.4575 43.5371 44.1334 43.5371 44.9672C43.5371 45.801 44.2039 46.4769 45.0264 46.4769Z" fill="white"/>
<path opacity="0.1" d="M46.6827 50.5336C47.5052 50.5336 48.172 49.8577 48.172 49.0239C48.172 48.1901 47.5052 47.5142 46.6827 47.5142C45.8602 47.5142 45.1934 48.1901 45.1934 49.0239C45.1934 49.8577 45.8602 50.5336 46.6827 50.5336Z" fill="white"/>
<path opacity="0.3" d="M53.633 50.091C53.052 49.5021 53.052 48.5448 53.633 47.9559C54.214 47.3669 55.1566 47.3669 55.7393 47.9559C56.322 48.5448 56.3203 49.5003 55.7393 50.091C55.1583 50.6817 54.2157 50.68 53.633 50.091Z" fill="white"/>
<path d="M25.5595 66.9035C24.7343 66.9035 23.998 66.4074 23.6997 65.638C22.1899 61.7449 17.5899 49.867 15.462 44.1877C14.98 42.9013 15.931 41.5613 17.3046 41.5613H67.6671C69.374 41.5613 70.881 42.6429 71.4002 44.2688C73.0184 49.3364 76.2033 59.5356 77.6943 64.3177C78.0956 65.6049 77.1312 66.9035 75.7828 66.9035H25.5595Z" fill="white"/>
<path d="M25.5595 66.4035C24.9373 66.4035 24.3884 66.031 24.1659 65.4573C22.6557 61.5631 18.0569 49.6882 15.9302 44.0122C15.5738 43.0609 16.2713 42.0613 17.3046 42.0613H67.6671C69.1604 42.0613 70.472 43.006 70.9239 44.4209C72.5415 49.4866 75.7258 59.6839 77.217 64.4665C77.5169 65.4286 76.7974 66.4035 75.7828 66.4035H25.5595Z" stroke="#00695C" stroke-opacity="0.56"/>
<ellipse cx="49.5" cy="31.0137" rx="1" ry="1.01369" fill="#00695C" fill-opacity="0.2"/>
<ellipse cx="43" cy="24.5205" rx="1.5" ry="1.52053" fill="#00695C" fill-opacity="0.2"/>
<circle cx="55" cy="36.5" r="1.5" fill="#00695C" fill-opacity="0.2"/>
<ellipse cx="53" cy="51.1912" rx="3.5" ry="3.54791" fill="#00695C" fill-opacity="0.4"/>
<path d="M56 51.1912C56 52.881 54.6505 54.2391 53 54.2391C51.3495 54.2391 50 52.881 50 51.1912C50 49.5015 51.3495 48.1433 53 48.1433C54.6505 48.1433 56 49.5015 56 51.1912Z" stroke="#00695C" stroke-opacity="0.56"/>
<ellipse cx="52.3398" cy="49.9845" rx="1.75" ry="1.77395" fill="white"/>
<ellipse cx="39" cy="51.1912" rx="3.5" ry="3.54791" fill="#00695C" fill-opacity="0.4"/>
<path d="M42 51.1912C42 52.881 40.6505 54.2391 39 54.2391C37.3495 54.2391 36 52.881 36 51.1912C36 49.5015 37.3495 48.1433 39 48.1433C40.6505 48.1433 42 49.5015 42 51.1912Z" stroke="#00695C" stroke-opacity="0.56"/>
<ellipse cx="38.3398" cy="49.9845" rx="1.75" ry="1.77395" fill="white"/>
<path d="M42.5 59.8075C43.598 59.0426 46.7353 57.9716 50.5 59.8075" stroke="#00695C" stroke-opacity="0.56" stroke-linecap="round"/>
<circle cx="52.5" cy="20" r="1" fill="#00695C" fill-opacity="0.2"/>
<circle cx="45.5" cy="11" r="1" fill="#00695C" fill-opacity="0.2"/>
</svg>
