<svg width="100" height="100" viewBox="0 0 100 100" fill="none" xmlns="http://www.w3.org/2000/svg">
<path fill-rule="evenodd" clip-rule="evenodd" d="M56.6407 2.09678C68.5147 3.08527 76.2306 13.7619 83.8214 23.3322C91.676 33.2351 102.466 43.6563 99.4957 56.1274C96.5507 68.491 81.5724 70.6365 71.0226 77.0645C58.2869 84.8244 47.6431 100.049 33.2987 96.4616C16.7269 92.3175 2.44101 76.9712 0.21267 59.3571C-1.88315 42.7905 11.9252 29.9584 23.411 18.3032C32.6305 8.94774 43.8158 1.02913 56.6407 2.09678Z" fill="#D12730" fill-opacity="0.04"/>
<path fill-rule="evenodd" clip-rule="evenodd" d="M51.4791 19.1719C52.0483 19.2483 52.4478 19.7715 52.3715 20.3407L51.1079 29.7629C51.0316 30.332 50.5083 30.7316 49.9392 30.6552C49.37 30.5789 48.9705 30.0556 49.0468 29.4865L50.3103 20.0643C50.3867 19.4951 50.9099 19.0956 51.4791 19.1719Z" fill="#D12730" fill-opacity="0.65"/>
<path fill-rule="evenodd" clip-rule="evenodd" d="M44.2139 73.3494C44.783 73.4258 45.1825 73.949 45.1062 74.5182L43.8427 83.9404C43.7664 84.5095 43.2431 84.909 42.674 84.8327C42.1048 84.7564 41.7053 84.2331 41.7816 83.664L43.0451 74.2418C43.1214 73.6726 43.6447 73.2731 44.2139 73.3494Z" fill="#D12730" fill-opacity="0.65"/>
<path fill-rule="evenodd" clip-rule="evenodd" d="M13.0684 47.4418C13.1447 46.8726 13.6679 46.4731 14.2371 46.5494L23.6593 47.813C24.2284 47.8893 24.628 48.4126 24.5516 48.9817C24.4753 49.5509 23.952 49.9504 23.3829 49.8741L13.9607 48.6105C13.3916 48.5342 12.992 48.011 13.0684 47.4418Z" fill="#D12730" fill-opacity="0.65"/>
<path fill-rule="evenodd" clip-rule="evenodd" d="M69.6015 55.0229C69.6778 54.4538 70.2011 54.0542 70.7702 54.1306L80.1924 55.3941C80.7616 55.4704 81.1611 55.9937 81.0847 56.5628C81.0084 57.132 80.4852 57.5315 79.916 57.4552L70.4938 56.1917C69.9247 56.1153 69.5251 55.5921 69.6015 55.0229Z" fill="#D12730" fill-opacity="0.65"/>
<path fill-rule="evenodd" clip-rule="evenodd" d="M63.2568 20.7513C63.8259 20.8276 64.2255 21.3509 64.1491 21.92L62.8856 31.3422C62.8093 31.9114 62.286 32.3109 61.7169 32.2346C61.1477 32.1583 60.7482 31.635 60.8245 31.0658L62.088 21.6436C62.1644 21.0745 62.6876 20.675 63.2568 20.7513Z" fill="#D12730" fill-opacity="0.65"/>
<path fill-rule="evenodd" clip-rule="evenodd" d="M55.9916 74.9288C56.5607 75.0052 56.9602 75.5284 56.8839 76.0976L55.6204 85.5198C55.5441 86.0889 55.0208 86.4885 54.4516 86.4121C53.8825 86.3358 53.483 85.8125 53.5593 85.2434L54.8228 75.8212C54.8991 75.252 55.4224 74.8525 55.9916 74.9288Z" fill="#D12730" fill-opacity="0.65"/>
<path fill-rule="evenodd" clip-rule="evenodd" d="M14.6479 35.6641C14.7242 35.0949 15.2475 34.6954 15.8166 34.7717L25.2388 36.0353C25.808 36.1116 26.2075 36.6348 26.1312 37.204C26.0548 37.7732 25.5316 38.1727 24.9624 38.0964L15.5402 36.8328C14.9711 36.7565 14.5716 36.2332 14.6479 35.6641Z" fill="#D12730" fill-opacity="0.65"/>
<path fill-rule="evenodd" clip-rule="evenodd" d="M71.1809 43.2452C71.2572 42.676 71.7805 42.2765 72.3496 42.3529L81.7718 43.6164C82.3409 43.6927 82.7405 44.216 82.6641 44.7851C82.5878 45.3543 82.0645 45.7538 81.4954 45.6775L72.0732 44.414C71.5041 44.3376 71.1045 43.8144 71.1809 43.2452Z" fill="#D12730" fill-opacity="0.65"/>
<path fill-rule="evenodd" clip-rule="evenodd" d="M39.7015 17.5925C40.2707 17.6688 40.6702 18.1921 40.5939 18.7612L39.3304 28.1834C39.254 28.7526 38.7308 29.1521 38.1616 29.0758C37.5925 28.9994 37.1929 28.4762 37.2693 27.907L38.5328 18.4848C38.6091 17.9157 39.1324 17.5162 39.7015 17.5925Z" fill="#D12730" fill-opacity="0.65"/>
<path fill-rule="evenodd" clip-rule="evenodd" d="M32.4363 71.77C33.0055 71.8463 33.405 72.3696 33.3287 72.9387L32.0651 82.3609C31.9888 82.9301 31.4655 83.3296 30.8964 83.2533C30.3272 83.1769 29.9277 82.6537 30.004 82.0845L31.2675 72.6623C31.3439 72.0932 31.8671 71.6936 32.4363 71.77Z" fill="#D12730" fill-opacity="0.65"/>
<path fill-rule="evenodd" clip-rule="evenodd" d="M11.489 59.2195C11.5653 58.6504 12.0886 58.2508 12.6577 58.3272L22.0799 59.5907C22.6491 59.667 23.0486 60.1903 22.9723 60.7594C22.8959 61.3286 22.3727 61.7281 21.8035 61.6518L12.3813 60.3883C11.8122 60.3119 11.4127 59.7887 11.489 59.2195Z" fill="#D12730" fill-opacity="0.65"/>
<path fill-rule="evenodd" clip-rule="evenodd" d="M68.0221 66.8006C68.0984 66.2315 68.6217 65.8319 69.1908 65.9083L78.613 67.1718C79.1822 67.2481 79.5817 67.7714 79.5054 68.3405C79.429 68.9097 78.9058 69.3092 78.3366 69.2329L68.9144 67.9694C68.3453 67.893 67.9458 67.3698 68.0221 66.8006Z" fill="#D12730" fill-opacity="0.65"/>
<rect x="26.6799" y="25.288" width="47" height="47" rx="2" transform="rotate(7.63783 26.6799 25.288)" fill="white"/>
<rect x="27.5381" y="26.4121" width="45" height="45" rx="1" transform="rotate(7.63783 27.5381 26.4121)" stroke="#D12730" stroke-opacity="0.65" stroke-width="2"/>
<ellipse cx="55.1265" cy="49.7189" rx="4.1591" ry="4.21603" transform="rotate(7 55.1265 49.7189)" fill="#D12730" fill-opacity="0.4"/>
<path d="M58.7416 50.1628C58.4918 52.1972 56.6657 53.6349 54.6757 53.3905C52.6857 53.1462 51.2617 51.3094 51.5115 49.2751C51.7613 47.2407 53.5874 45.803 55.5774 46.0474C57.5674 46.2917 58.9914 48.1285 58.7416 50.1628Z" stroke="#D12730" stroke-opacity="0.56" stroke-width="1.03374"/>
<ellipse cx="54.5227" cy="48.2" rx="2.07955" ry="2.10801" transform="rotate(7 54.5227 48.2)" fill="white"/>
<ellipse cx="38.6143" cy="47.6915" rx="4.1591" ry="4.21603" transform="rotate(7 38.6143 47.6915)" fill="#D12730" fill-opacity="0.4"/>
<path d="M42.2294 48.1353C41.9796 50.1697 40.1535 51.6074 38.1635 51.3631C36.1735 51.1187 34.7494 49.282 34.9992 47.2476C35.249 45.2132 37.0751 43.7755 39.0651 44.0199C41.0551 44.2642 42.4792 46.101 42.2294 48.1353Z" stroke="#D12730" stroke-opacity="0.56" stroke-width="1.03374"/>
<ellipse cx="38.0103" cy="46.1726" rx="2.07955" ry="2.10801" transform="rotate(7 38.0103 46.1726)" fill="white"/>
<path d="M41.4945 58.361C42.9004 57.6178 46.7557 56.809 50.9302 59.5196" stroke="#D12730" stroke-opacity="0.65" stroke-width="1.03374" stroke-linecap="round"/>
<circle cx="33.5" cy="17.5" r="1.5" fill="#D12730" fill-opacity="0.2"/>
<circle cx="57.5" cy="18.5" r="1.5" fill="#D12730" fill-opacity="0.2"/>
<circle cx="85.5" cy="54.5" r="1.5" fill="#D12730" fill-opacity="0.2"/>
<circle cx="45" cy="11" r="1" fill="#D12730" fill-opacity="0.2"/>
<circle cx="23" cy="27" r="1" fill="#D12730" fill-opacity="0.2"/>
<circle cx="10" cy="51" r="1" fill="#D12730" fill-opacity="0.2"/>
<circle cx="57" cy="9" r="1" fill="#D12730" fill-opacity="0.2"/>
<circle cx="71" cy="19" r="1" fill="#D12730" fill-opacity="0.2"/>
<circle cx="78" cy="35" r="1" fill="#D12730" fill-opacity="0.2"/>
</svg>
