<svg width="100" height="100" viewBox="0 0 100 100" fill="none" xmlns="http://www.w3.org/2000/svg">
<g clip-path="url(#clip0_2459_5815)">
<path fill-rule="evenodd" clip-rule="evenodd" d="M30.0515 96.2764C40.6834 101.232 52.6662 95.6271 63.983 90.9335C75.6929 86.0769 90.1699 82.2046 93.9417 69.7784C97.6809 57.4592 85.9851 48.224 80.2337 37.3946C73.2907 24.3214 71.9072 5.70923 57.8534 1.82701C41.6172 -2.65804 21.6669 3.83114 10.8582 18.2304C0.692355 31.7733 5.98579 49.8339 9.89254 65.72C13.0284 78.4715 18.5683 90.9237 30.0515 96.2764Z" fill="#305680" fill-opacity="0.04"/>
<path fill-rule="evenodd" clip-rule="evenodd" d="M41.2058 30.0558C41.7229 29.9253 42.2479 30.2387 42.3784 30.7557L44.5393 39.3157C44.6699 39.8328 44.3565 40.3578 43.8394 40.4883C43.3223 40.6189 42.7974 40.3055 42.6668 39.7884L40.5059 31.2284C40.3754 30.7113 40.6888 30.1864 41.2058 30.0558Z" fill="#305680" fill-opacity="0.65"/>
<path fill-rule="evenodd" clip-rule="evenodd" d="M53.6309 79.2759C54.148 79.1453 54.673 79.4587 54.8035 79.9758L56.9644 88.5358C57.095 89.0528 56.7816 89.5778 56.2645 89.7084C55.7475 89.8389 55.2225 89.5255 55.0919 89.0085L52.931 80.4485C52.8005 79.9314 53.1139 79.4064 53.6309 79.2759Z" fill="#305680" fill-opacity="0.65"/>
<path fill-rule="evenodd" clip-rule="evenodd" d="M17.8389 67.6815C17.7084 67.1644 18.0217 66.6394 18.5388 66.5089L27.0988 64.348C27.6159 64.2175 28.1409 64.5308 28.2714 65.0479C28.402 65.565 28.0886 66.09 27.5715 66.2205L19.0115 68.3814C18.4944 68.5119 17.9694 68.1986 17.8389 67.6815Z" fill="#305680" fill-opacity="0.65"/>
<path fill-rule="evenodd" clip-rule="evenodd" d="M69.1989 54.7162C69.0684 54.1991 69.3818 53.6741 69.8988 53.5436L78.4589 51.3827C78.9759 51.2521 79.5009 51.5655 79.6314 52.0826C79.762 52.5996 79.4486 53.1246 78.9315 53.2552L70.3715 55.4161C69.8545 55.5466 69.3295 55.2332 69.1989 54.7162Z" fill="#305680" fill-opacity="0.65"/>
<path fill-rule="evenodd" clip-rule="evenodd" d="M51.9058 27.3547C52.4229 27.2242 52.9479 27.5375 53.0784 28.0546L55.2393 36.6146C55.3698 37.1317 55.0565 37.6567 54.5394 37.7872C54.0223 37.9178 53.4973 37.6044 53.3668 37.0873L51.2059 28.5273C51.0754 28.0102 51.3887 27.4852 51.9058 27.3547Z" fill="#305680" fill-opacity="0.65"/>
<path fill-rule="evenodd" clip-rule="evenodd" d="M64.3309 76.5747C64.848 76.4442 65.373 76.7576 65.5035 77.2747L67.6644 85.8347C67.7949 86.3517 67.4816 86.8767 66.9645 87.0073C66.4474 87.1378 65.9224 86.8244 65.7919 86.3074L63.631 77.7473C63.5005 77.2303 63.8138 76.7053 64.3309 76.5747Z" fill="#305680" fill-opacity="0.65"/>
<path fill-rule="evenodd" clip-rule="evenodd" d="M15.1379 56.9814C15.0074 56.4644 15.3207 55.9394 15.8378 55.8088L24.3978 53.648C24.9149 53.5174 25.4399 53.8308 25.5704 54.3479C25.7009 54.8649 25.3876 55.3899 24.8705 55.5205L16.3105 57.6813C15.7934 57.8119 15.2684 57.4985 15.1379 56.9814Z" fill="#305680" fill-opacity="0.65"/>
<path fill-rule="evenodd" clip-rule="evenodd" d="M66.4979 44.0162C66.3673 43.4991 66.6807 42.9741 67.1978 42.8436L75.7578 40.6827C76.2748 40.5522 76.7998 40.8655 76.9304 41.3826C77.0609 41.8997 76.7475 42.4247 76.2305 42.5552L67.6705 44.7161C67.1534 44.8466 66.6284 44.5332 66.4979 44.0162Z" fill="#305680" fill-opacity="0.65"/>
<path fill-rule="evenodd" clip-rule="evenodd" d="M30.5059 32.7568C31.023 32.6263 31.548 32.9396 31.6785 33.4567L33.8394 42.0167C33.97 42.5338 33.6566 43.0588 33.1395 43.1893C32.6224 43.3199 32.0974 43.0065 31.9669 42.4894L29.806 33.9294C29.6755 33.4123 29.9889 32.8873 30.5059 32.7568Z" fill="#305680" fill-opacity="0.65"/>
<path fill-rule="evenodd" clip-rule="evenodd" d="M42.931 81.9768C43.4481 81.8463 43.9731 82.1597 44.1036 82.6768L46.2645 91.2368C46.3951 91.7538 46.0817 92.2788 45.5646 92.4094C45.0475 92.5399 44.5226 92.2265 44.392 91.7095L42.2311 83.1494C42.1006 82.6324 42.414 82.1074 42.931 81.9768Z" fill="#305680" fill-opacity="0.65"/>
<path fill-rule="evenodd" clip-rule="evenodd" d="M20.54 78.3815C20.4095 77.8644 20.7228 77.3394 21.2399 77.2089L29.7999 75.048C30.317 74.9175 30.842 75.2308 30.9725 75.7479C31.1031 76.265 30.7897 76.79 30.2726 76.9205L21.7126 79.0814C21.1955 79.2119 20.6706 78.8986 20.54 78.3815Z" fill="#305680" fill-opacity="0.65"/>
<path fill-rule="evenodd" clip-rule="evenodd" d="M71.9001 65.4162C71.7696 64.8992 72.0829 64.3742 72.6 64.2436L81.16 62.0827C81.6771 61.9522 82.2021 62.2656 82.3326 62.7826C82.4631 63.2997 82.1498 63.8247 81.6327 63.9552L73.0727 66.1161C72.5556 66.2467 72.0306 65.9333 71.9001 65.4162Z" fill="#305680" fill-opacity="0.65"/>
<rect x="21.9329" y="43.8843" width="44" height="44" rx="2" transform="rotate(-14.1677 21.9329 43.8843)" fill="white"/>
<rect x="23.1055" y="44.5842" width="42.0688" height="42.0688" rx="1.03438" transform="rotate(-14.1677 23.1055 44.5842)" stroke="#305680" stroke-opacity="0.65" stroke-width="1.93124"/>
<ellipse cx="55.4785" cy="54.6223" rx="3.86249" ry="3.91535" transform="rotate(-14.8056 55.4785 54.6223)" fill="#305680" fill-opacity="0.4"/>
<path d="M58.7487 53.758C59.2351 55.5983 58.1565 57.4678 56.3563 57.9436C54.5562 58.4194 52.6947 57.327 52.2083 55.4867C51.7219 53.6464 52.8005 51.7769 54.6006 51.3011C56.4007 50.8253 58.2622 51.9177 58.7487 53.758Z" stroke="#305680" stroke-opacity="0.56" stroke-width="0.960017"/>
<ellipse cx="54.4339" cy="53.521" rx="1.93124" ry="1.95768" transform="rotate(-14.8056 54.4339 53.521)" fill="white"/>
<ellipse cx="40.5416" cy="58.5703" rx="3.86249" ry="3.91535" transform="rotate(-14.8056 40.5416 58.5703)" fill="#305680" fill-opacity="0.4"/>
<path d="M43.8118 57.706C44.2982 59.5462 43.2196 61.4158 41.4195 61.8916C39.6193 62.3674 37.7579 61.275 37.2714 59.4347C36.785 57.5944 37.8636 55.7249 39.6638 55.2491C41.4639 54.7733 43.3254 55.8657 43.8118 57.706Z" stroke="#305680" stroke-opacity="0.56" stroke-width="0.960017"/>
<ellipse cx="39.4969" cy="57.4691" rx="1.93124" ry="1.95768" transform="rotate(-14.8056 39.4969 57.4691)" fill="white"/>
<path d="M54.9552 63.4389C54.51 65.1956 50.5551 68.1685 46.4198 65.6949" stroke="#305680" stroke-opacity="0.65" stroke-width="0.960017" stroke-linecap="round"/>
<circle cx="14.5" cy="27.5" r="1.5" fill="#305680" fill-opacity="0.2"/>
<circle cx="68.5" cy="29.5" r="1.5" fill="#305680" fill-opacity="0.2"/>
<circle cx="14.5" cy="42.5" r="1.5" fill="#305680" fill-opacity="0.2"/>
<circle cx="21" cy="18" r="1" fill="#305680" fill-opacity="0.2"/>
<circle cx="39" cy="7" r="1" fill="#305680" fill-opacity="0.2"/>
<circle cx="27" cy="33" r="1" fill="#305680" fill-opacity="0.2"/>
<circle cx="53" cy="13" r="1" fill="#305680" fill-opacity="0.2"/>
<circle cx="59" cy="24" r="1" fill="#305680" fill-opacity="0.2"/>
<circle cx="84" cy="53" r="1" fill="#305680" fill-opacity="0.2"/>
<g clip-path="url(#clip1_2459_5815)">
<path d="M37.8398 23.3717L42.4501 15.6988L40.9264 14.7833L37.2316 20.9325L34.1298 19.0687L33.2143 20.5924L37.8398 23.3717ZM40.2323 27.7718C39.0272 28.0723 37.8377 28.126 36.6637 27.9329C35.4898 27.7398 34.4131 27.349 33.4336 26.7604C32.454 26.1719 31.6035 25.4047 30.8819 24.4588C30.1602 23.5129 29.6492 22.4374 29.3487 21.2323C29.0483 20.0272 28.9946 18.8377 29.1877 17.6638C29.3808 16.4899 29.7716 15.4131 30.3601 14.4336C30.9487 13.4541 31.7159 12.6035 32.6618 11.8819C33.6077 11.1603 34.6831 10.6493 35.8882 10.3488C37.0933 10.0483 38.2828 9.99464 39.4568 10.1877C40.6307 10.3808 41.7074 10.7716 42.6869 11.3602C43.6665 11.9488 44.517 12.716 45.2387 13.6618C45.9603 14.6077 46.4713 15.6832 46.7718 16.8883C47.0722 18.0934 47.1259 19.2829 46.9328 20.4568C46.7397 21.6308 46.3489 22.7075 45.7604 23.687C45.1718 24.6665 44.4046 25.5171 43.4587 26.2387C42.5129 26.9603 41.4374 27.4714 40.2323 27.7718ZM39.7979 26.0295C41.7434 25.5444 43.223 24.4584 44.2367 22.7715C45.2503 21.0845 45.5146 19.2683 45.0295 17.3227C44.5444 15.3771 43.4584 13.8975 41.7714 12.8839C40.0845 11.8703 38.2682 11.606 36.3226 12.0911C34.3771 12.5762 32.8975 13.6622 31.8838 15.3491C30.8702 17.0361 30.606 18.8524 31.091 20.7979C31.5761 22.7435 32.6621 24.2231 34.3491 25.2367C36.036 26.2503 37.8523 26.5146 39.7979 26.0295Z" fill="#305680" fill-opacity="0.65"/>
</g>
</g>
<defs>
<clipPath id="clip0_2459_5815">
<rect width="100" height="100" rx="8" fill="white"/>
</clipPath>
<clipPath id="clip1_2459_5815">
<rect width="21.5477" height="21.5477" fill="white" transform="translate(25 11.2129) rotate(-14)"/>
</clipPath>
</defs>
</svg>
