<?xml version="1.0" standalone="no"?>
<!DOCTYPE svg PUBLIC "-//W3C//DTD SVG 20010904//EN"
 "http://www.w3.org/TR/2001/REC-SVG-20010904/DTD/svg10.dtd">
<svg version="1.0" xmlns="http://www.w3.org/2000/svg"
 width="265.000000pt" height="265.000000pt" viewBox="0 0 265.000000 265.000000"
 preserveAspectRatio="xMidYMid meet">

<g transform="translate(0.000000,265.000000) scale(0.100000,-0.100000)"
fill="#000000" stroke="none">
<path d="M84 2555 c-9 -22 2 -664 11 -673 10 -10 662 -9 672 1 12 13 16 649 4
667 -9 13 -61 16 -346 19 -309 3 -335 2 -341 -14z m586 -101 c7 -7 9 -96 8
-245 l-3 -234 -241 -3 -241 -2 -6 106 c-9 138 -9 357 0 379 6 16 26 17 240 13
138 -2 237 -8 243 -14z"/>
<path d="M284 2356 c-3 -8 -4 -71 -2 -141 2 -98 6 -128 18 -135 8 -5 70 -10
137 -10 114 0 123 1 133 21 13 24 10 252 -3 266 -5 4 -69 9 -143 11 -113 3
-135 1 -140 -12z"/>
<path d="M987 2564 c-13 -13 -7 -71 7 -83 8 -7 30 -11 48 -9 32 3 33 4 33 48
l0 45 -40 3 c-23 2 -44 0 -48 -4z"/>
<path d="M1280 2525 c0 -47 -3 -50 -70 -57 -23 -3 -25 -7 -23 -50 l1 -48 -99
0 c-108 0 -103 -3 -111 70 -3 22 -8 25 -50 28 l-48 3 0 -84 c0 -96 9 -115 60
-119 32 -3 35 -6 38 -38 5 -54 21 -60 158 -60 133 0 134 0 144 60 5 33 8 35
50 40 45 5 45 5 50 50 l5 45 45 5 c42 5 45 7 48 38 4 43 -12 62 -53 62 -35 0
-45 13 -45 60 0 31 -14 40 -66 40 -34 0 -34 0 -34 -45z"/>
<path d="M1584 2557 c-2 -7 -4 -52 -2 -98 l3 -84 45 0 45 0 0 95 0 95 -43 3
c-29 2 -44 -1 -48 -11z"/>
<path d="M1884 2555 c-9 -22 2 -664 11 -673 10 -10 662 -9 672 1 12 13 16 649
4 667 -9 13 -61 16 -346 19 -309 3 -335 2 -341 -14z m586 -101 c7 -7 9 -96 8
-245 l-3 -234 -241 -3 -241 -2 -6 106 c-9 138 -9 357 0 379 6 16 26 17 240 13
138 -2 237 -8 243 -14z"/>
<path d="M2084 2356 c-3 -8 -4 -71 -2 -141 2 -98 6 -128 18 -135 8 -5 70 -10
137 -10 114 0 123 1 133 21 13 24 10 252 -3 266 -5 4 -69 9 -143 11 -113 3
-135 1 -140 -12z"/>
<path d="M1690 2351 c-26 -49 -2 -84 52 -79 29 3 33 7 36 36 2 18 -2 40 -9 48
-17 21 -66 18 -79 -5z"/>
<path d="M1498 2259 c-12 -6 -18 -22 -18 -44 0 -32 -3 -35 -47 -47 l-48 -14 0
-82 c0 -99 14 -123 61 -100 16 7 30 22 32 33 10 66 10 66 55 63 41 -3 42 -4
45 -40 4 -44 16 -55 62 -60 33 -3 35 -5 40 -48 5 -45 5 -45 47 -48 40 -3 42
-2 48 30 3 18 5 85 3 148 l-3 115 -40 3 c-44 4 -55 14 -55 53 0 14 -5 30 -12
37 -15 15 -146 16 -170 1z"/>
<path d="M887 2164 c-9 -9 -7 -331 2 -364 7 -24 10 -25 99 -28 l93 -3 -3 -97
-3 -97 -178 -3 c-111 -1 -185 1 -197 8 -14 8 -20 21 -20 45 0 41 -7 44 -120
47 l-75 3 -5 45 c-4 40 -8 45 -32 48 -43 5 -66 -13 -70 -56 -3 -37 -3 -37 -48
-37 -44 0 -45 1 -48 35 -6 55 -15 60 -113 60 l-89 0 0 -131 c0 -72 5 -139 10
-150 13 -24 75 -27 84 -3 3 9 6 54 6 100 l0 85 48 -3 c46 -3 47 -4 50 -38 4
-43 18 -60 47 -60 42 0 55 -11 55 -44 0 -39 15 -56 50 -56 36 0 50 17 50 62
l0 38 104 0 104 0 -5 -39 c-8 -60 1 -62 264 -59 l228 3 5 45 5 45 45 5 c43 5
45 6 48 41 4 42 -10 56 -58 61 -33 3 -35 5 -40 48 -5 44 -6 45 -42 48 -44 4
-55 16 -60 62 -3 33 -5 35 -45 38 -35 3 -44 7 -49 27 -11 43 -1 70 26 73 68 7
71 10 68 55 -3 41 -4 42 -40 42 -46 0 -56 10 -60 60 -3 39 -4 40 -43 43 -23 2
-44 0 -48 -4z"/>
<path d="M1190 2050 c-6 -12 -10 -33 -8 -48 3 -23 8 -27 39 -30 44 -4 62 15
57 60 -3 30 -6 33 -40 36 -29 2 -39 -1 -48 -18z"/>
<path d="M1098 1959 c-19 -10 -24 -54 -9 -77 5 -8 23 -12 47 -10 35 3 39 6 42
33 1 17 -1 35 -5 42 -12 17 -55 24 -75 12z"/>
<path d="M1290 1944 c-6 -15 -10 -59 -8 -98 l3 -71 45 0 45 0 3 93 c3 92 3 92
-22 92 -13 0 -31 3 -40 6 -11 4 -19 -3 -26 -22z"/>
<path d="M1491 1956 c-7 -8 -11 -30 -9 -48 3 -36 26 -46 74 -34 21 6 24 12 24
51 l0 45 -39 0 c-21 0 -44 -6 -50 -14z"/>
<path d="M680 1737 c0 -60 14 -68 110 -65 l85 3 0 45 0 45 -97 3 -98 3 0 -34z"/>
<path d="M1394 1745 c-24 -24 -25 -28 -11 -48 17 -26 48 -33 76 -17 16 8 21
21 21 50 0 38 -2 40 -30 40 -20 0 -40 -9 -56 -25z"/>
<path d="M1587 1763 c-12 -11 -8 -70 6 -81 6 -6 28 -12 47 -14 32 -3 35 -6 38
-38 2 -19 10 -41 19 -47 19 -15 240 -18 261 -4 8 4 16 27 19 50 l6 41 86 0
c95 0 111 7 111 52 0 39 -29 48 -148 47 -134 -1 -146 -6 -152 -54 -5 -40 -5
-40 -50 -40 -45 0 -45 0 -48 38 -3 30 -9 40 -28 47 -29 11 -157 13 -167 3z"/>
<path d="M2308 1763 c-22 -5 -35 -50 -21 -72 13 -20 157 -28 179 -10 19 16 18
75 -2 83 -18 7 -130 6 -156 -1z"/>
<path d="M2503 1662 c-7 -4 -16 -26 -21 -47 -7 -38 -10 -40 -52 -45 -42 -5
-45 -7 -48 -38 -5 -52 10 -62 97 -62 47 0 82 5 89 12 12 12 17 143 6 172 -6
17 -50 21 -71 8z"/>
<path d="M1998 1559 c-21 -12 -24 -59 -6 -77 7 -7 27 -12 45 -12 29 0 33 -3
39 -37 9 -49 20 -63 53 -63 42 0 51 17 51 96 0 94 -9 104 -98 104 -37 0 -75
-5 -84 -11z"/>
<path d="M286 1448 c-3 -13 -6 -58 -6 -101 l0 -78 -47 3 c-43 3 -48 6 -51 28
-7 67 -10 70 -57 70 l-45 0 0 -88 c0 -93 8 -112 46 -112 41 0 54 -11 54 -44 0
-42 16 -56 62 -56 l38 0 0 -82 c0 -46 5 -90 10 -98 8 -12 48 -16 235 -18 244
-4 255 -2 255 47 0 43 -17 51 -107 51 -96 0 -91 -6 -95 120 l-3 75 -47 3 -48
3 0 -96 c0 -94 0 -96 -26 -106 -59 -22 -74 2 -74 124 l0 77 44 0 c41 0 44 2
50 31 11 54 7 146 -7 157 -6 6 -28 12 -47 14 -33 3 -35 5 -40 48 -5 45 -5 45
-46 48 -36 3 -42 0 -48 -20z"/>
<path d="M492 1458 c-7 -7 -12 -24 -12 -38 0 -36 17 -50 61 -50 l37 0 4 -90
c4 -107 18 -131 64 -108 23 10 30 21 34 53 5 38 7 40 44 43 43 4 56 -7 56 -49
0 -33 16 -46 60 -51 l35 -3 5 -95 5 -95 65 -2 c36 -2 80 -5 98 -8 l32 -6 0
-107 c0 -59 3 -124 6 -144 6 -36 9 -38 44 -38 47 0 50 7 50 115 l0 84 98 3 97
3 3 48 3 47 100 0 99 0 0 39 c0 45 -12 58 -60 63 -32 3 -35 6 -38 38 -4 44
-12 51 -59 59 -41 7 -51 27 -39 76 5 20 14 24 49 27 42 3 42 3 47 48 5 43 7
45 40 48 45 5 60 18 60 53 0 37 -24 49 -94 49 -82 0 -106 -12 -106 -54 0 -32
-3 -36 -37 -45 -21 -6 -44 -11 -52 -11 -11 0 -12 -10 -8 -45 l7 -45 -105 0
-105 0 0 -94 c0 -102 -4 -110 -53 -108 -40 1 -47 14 -47 98 0 82 -11 102 -60
106 -33 3 -35 5 -38 44 -3 39 -5 42 -40 48 -20 3 -79 6 -130 6 -109 0 -132 9
-132 50 0 43 -58 68 -88 38z m786 -386 c3 -92 3 -92 -24 -102 -57 -22 -74 2
-74 107 0 87 4 95 54 91 l41 -3 3 -93z"/>
<path d="M1684 1356 c-3 -8 -4 -29 -2 -48 3 -31 5 -33 44 -36 49 -4 54 -13 54
-107 0 -61 18 -105 44 -105 25 0 49 28 55 66 6 39 7 39 51 39 45 0 45 0 48
-37 4 -44 16 -55 62 -60 34 -3 35 -4 38 -50 l3 -48 -200 0 -201 0 0 -99 0 -98
-39 -7 c-46 -7 -64 -25 -59 -63 3 -25 8 -29 48 -33 l45 -5 6 -145 c3 -80 7
-146 7 -147 1 -2 17 -3 35 -3 43 0 57 15 57 62 l0 39 98 -3 97 -3 5 -87 c3
-48 10 -92 16 -98 7 -7 42 -10 90 -8 78 3 79 3 87 33 15 50 23 60 51 63 35 4
56 -14 56 -48 0 -36 21 -52 62 -48 l33 3 0 95 0 95 -42 3 c-46 3 -59 22 -51
73 2 20 10 25 48 29 l45 5 3 48 3 47 90 0 c87 0 90 1 99 26 6 14 10 56 10 94
0 64 -2 70 -23 75 -12 4 -35 1 -50 -4 -21 -8 -27 -17 -27 -39 0 -40 -19 -60
-60 -64 -31 -3 -35 -6 -38 -34 -4 -41 -33 -68 -65 -60 -30 7 -37 30 -37 129
l0 77 39 0 c47 0 63 18 59 62 l-3 33 -92 3 c-107 3 -101 -3 -105 117 l-3 70
-45 11 -45 11 -3 90 -3 90 -37 7 c-20 3 -108 6 -195 6 -126 0 -159 -3 -163
-14z m359 -492 l38 -7 -3 -141 -3 -141 -141 -3 -141 -3 -6 68 c-9 86 -9 197
-1 217 5 13 25 16 113 16 58 0 123 -3 144 -6z"/>
<path d="M1887 764 c-13 -13 -7 -71 7 -83 8 -7 30 -11 48 -9 32 3 33 4 33 48
l0 45 -40 3 c-23 2 -44 0 -48 -4z"/>
<path d="M2186 1339 c-8 -39 -6 -106 3 -139 5 -20 15 -26 46 -30 39 -5 40 -6
45 -50 5 -45 5 -45 47 -48 51 -4 56 7 51 113 l-3 70 -45 11 c-41 10 -45 13
-48 45 -5 45 -18 59 -57 59 -28 0 -33 -4 -39 -31z"/>
<path d="M2403 1360 c-15 -6 -23 -18 -23 -34 0 -45 10 -56 50 -56 46 0 50 -8
50 -99 0 -83 13 -104 60 -99 l35 3 3 128 c3 164 2 167 -86 166 -37 0 -77 -4
-89 -9z"/>
<path d="M691 1156 c-7 -8 -11 -30 -9 -48 3 -36 26 -46 74 -34 21 6 24 12 24
51 l0 45 -39 0 c-21 0 -44 -6 -50 -14z"/>
<path d="M87 1064 c-13 -13 -7 -71 7 -83 8 -7 30 -11 48 -9 32 3 33 4 33 48
l0 45 -40 3 c-23 2 -44 0 -48 -4z"/>
<path d="M2388 1046 c-8 -20 -8 -32 0 -52 10 -21 18 -25 50 -22 37 3 37 3 37
48 0 45 0 45 -37 48 -32 3 -40 -1 -50 -22z"/>
<path d="M890 844 c-6 -15 -10 -59 -8 -98 l3 -71 45 0 45 0 0 95 0 95 -38 3
c-32 3 -38 0 -47 -24z"/>
<path d="M1484 857 c-3 -9 -4 -30 -2 -48 2 -25 9 -34 31 -42 40 -13 69 14 65
62 -3 35 -5 36 -46 39 -30 2 -44 -1 -48 -11z"/>
<path d="M84 755 c-9 -22 2 -664 11 -673 10 -10 662 -9 672 1 11 11 11 663 0
674 -5 4 -159 10 -343 12 -307 3 -334 2 -340 -14z m586 -101 c7 -7 9 -96 8
-245 l-3 -234 -241 -3 -241 -2 -6 106 c-9 138 -9 357 0 379 6 16 26 17 240 13
138 -2 237 -8 243 -14z"/>
<path d="M284 556 c-3 -8 -4 -71 -2 -141 2 -98 6 -128 18 -135 8 -5 70 -10
137 -10 114 0 123 1 133 21 13 24 10 252 -3 266 -5 4 -69 9 -143 11 -113 3
-135 1 -140 -12z"/>
<path d="M1283 721 l6 -51 -43 0 c-50 0 -63 -11 -68 -60 -3 -32 -6 -35 -38
-38 -45 -5 -60 -18 -60 -51 0 -42 17 -51 99 -51 42 0 81 -4 88 -8 6 -4 13 -25
15 -47 l3 -40 45 0 45 0 3 48 3 47 88 0 c95 0 111 7 111 51 0 40 -18 48 -110
51 l-85 3 -5 95 -5 95 -49 3 -49 3 6 -50z"/>
<path d="M990 650 c-6 -12 -10 -33 -8 -48 3 -25 7 -27 48 -27 l45 0 0 45 c0
45 0 45 -37 48 -29 2 -39 -1 -48 -18z"/>
<path d="M2402 554 c-25 -17 -29 -56 -8 -73 8 -7 30 -11 48 -9 32 3 33 5 36
51 3 46 2 47 -25 47 -16 0 -39 -7 -51 -16z"/>
<path d="M887 464 c-13 -13 -7 -71 7 -83 8 -7 30 -11 48 -9 32 3 33 4 33 48
l0 45 -40 3 c-23 2 -44 0 -48 -4z"/>
<path d="M1091 356 c-9 -10 -11 -28 -7 -51 l7 -35 -106 0 -105 0 0 -81 c0
-115 4 -119 100 -119 86 0 90 3 100 60 5 34 7 35 53 38 l48 3 -3 97 -3 97 -36
3 c-23 2 -40 -2 -48 -12z"/>
<path d="M1590 345 c-11 -29 -12 -206 -1 -245 6 -24 11 -25 86 -28 90 -3 105
6 105 65 l0 33 104 0 105 0 -6 -35 c-7 -43 9 -65 47 -65 36 0 52 21 48 62 -3
30 -6 33 -38 36 -46 5 -60 18 -60 57 0 28 -4 33 -31 39 -17 3 -83 6 -145 6
-125 0 -118 -4 -126 70 -3 21 -9 25 -41 28 -32 3 -38 0 -47 -23z"/>
<path d="M2508 363 c-22 -6 -35 -50 -21 -72 7 -10 24 -16 49 -16 l39 0 0 45
c0 41 -2 45 -25 47 -14 0 -33 -1 -42 -4z"/>
<path d="M1287 263 c-12 -11 -8 -70 6 -81 6 -6 28 -12 47 -14 32 -3 35 -6 38
-38 5 -46 18 -60 57 -60 39 0 45 14 45 116 0 56 -3 73 -16 78 -21 8 -169 8
-177 -1z"/>
<path d="M2187 263 c-13 -12 -7 -70 7 -82 8 -7 30 -11 48 -9 32 3 33 5 36 51
l3 47 -44 0 c-24 0 -47 -3 -50 -7z"/>
<path d="M2408 163 c-19 -5 -32 -40 -26 -70 3 -15 15 -18 87 -21 52 -2 88 1
97 9 21 17 18 66 -5 79 -19 10 -119 12 -153 3z"/>
</g>
</svg>
