<?xml version="1.0" standalone="no"?>
<!DOCTYPE svg PUBLIC "-//W3C//DTD SVG 20010904//EN"
 "http://www.w3.org/TR/2001/REC-SVG-20010904/DTD/svg10.dtd">
<svg version="1.0" xmlns="http://www.w3.org/2000/svg"
 width="606.000000pt" height="614.000000pt" viewBox="0 0 606.000000 614.000000"
 preserveAspectRatio="xMidYMid meet">

<g transform="translate(0.000000,614.000000) scale(0.100000,-0.100000)"
fill="#000000" stroke="none">
<path d="M140 5155 l0 -814 813 2 812 2 2 813 3 812 -815 0 -815 0 0 -815z
m1390 5 l0 -580 -580 0 -580 0 0 580 0 580 580 0 580 0 0 -580z"/>
<path d="M600 5160 l0 -350 350 0 350 0 0 350 0 350 -350 0 -350 0 0 -350z"/>
<path d="M2000 5855 l0 -115 115 0 115 0 0 -115 0 -115 -115 0 -115 0 0 -350
0 -350 230 0 230 0 0 115 0 115 235 0 235 0 0 -465 0 -465 -115 0 -115 0 -2
233 -3 232 -115 0 -115 0 -3 -232 -2 -233 -230 0 -230 0 0 -115 0 -114 -117
-3 -118 -3 -3 -112 -3 -112 -107 -3 c-59 -2 -162 -2 -229 0 l-123 3 0 115 0
114 -115 0 -115 0 0 115 0 115 -465 0 -465 0 0 -115 0 -115 465 0 465 0 0
-120 0 -120 115 0 115 0 0 -465 0 -465 115 0 115 0 0 120 0 120 120 0 120 0 0
115 0 115 -120 0 -120 0 0 115 0 115 235 0 235 0 0 -115 0 -115 115 0 115 0 0
-115 0 -115 -232 -2 -233 -3 -3 -112 -3 -112 -112 -3 -112 -3 -3 -117 -3 -118
116 0 115 0 0 -115 0 -115 -230 0 -230 0 0 115 0 115 -115 0 -115 0 0 350 0
350 -120 0 -120 0 0 -115 0 -115 -345 0 -345 0 0 -235 0 -235 115 0 115 0 0
-115 0 -115 -115 0 -115 0 0 -115 0 -115 230 0 230 0 0 115 0 115 350 0 350 0
0 -115 0 -115 235 0 235 0 0 115 0 115 230 0 230 0 0 -115 0 -115 -115 0 -115
0 0 -120 0 -120 115 0 115 0 0 120 0 120 115 0 115 0 0 115 0 115 -115 0 -115
0 0 115 0 115 -115 0 -115 0 0 115 0 115 115 0 115 0 0 120 0 120 115 0 115 0
0 115 0 115 -115 0 -115 0 0 115 0 115 -115 0 -115 0 0 235 0 235 115 0 114 0
3 -117 3 -118 113 -3 112 -3 0 236 0 235 120 0 120 0 0 -230 0 -229 -117 -3
-118 -3 0 -115 0 -115 118 -3 117 -3 0 -229 0 -230 115 0 115 0 0 -350 0 -350
115 0 115 0 0 -115 0 -115 -230 0 -230 0 0 -120 0 -120 115 0 115 0 0 -230 0
-230 -115 0 -115 0 -2 233 -3 232 -230 0 -230 0 0 -350 0 -350 113 -3 112 -3
0 121 0 120 120 0 120 0 0 -115 0 -114 -117 -3 -118 -3 -3 -118 -3 -117 -114
0 -115 0 0 120 0 120 -115 0 -115 0 0 -470 0 -470 230 0 230 0 0 350 0 350
120 0 120 0 0 -115 0 -115 115 0 115 0 0 -235 0 -234 465 0 465 0 0 119 0 120
-230 0 -230 0 0 115 0 115 345 0 345 0 2 -232 3 -233 115 0 115 0 3 118 3 117
114 0 115 0 0 -120 0 -119 698 2 697 2 0 115 0 115 -232 3 -233 2 0 115 0 115
115 0 115 0 0 115 0 115 -115 0 -114 0 -3 117 -3 118 -112 3 -112 3 -3 112 -3
112 -117 3 -118 3 0 349 0 350 120 0 120 0 0 -235 0 -235 115 0 115 0 0 -115
0 -115 115 0 115 0 0 115 0 115 120 0 119 0 1 465 0 465 -120 0 -120 0 0 120
0 120 -230 0 -230 0 0 -120 0 -120 230 0 230 0 0 -115 0 -115 -350 0 -350 0 0
465 0 465 120 0 120 0 0 -115 0 -115 230 0 229 0 3 -117 3 -118 115 0 115 0 2
233 3 232 -235 0 -235 0 0 115 0 115 -235 0 -235 0 0 120 0 121 -112 -3 -113
-3 -3 -117 -3 -118 116 0 115 0 0 -115 0 -115 -115 0 -115 0 0 -115 0 -115
-115 0 -115 0 0 115 0 115 -115 0 -115 0 0 115 0 115 -235 0 -235 0 0 -115 0
-115 115 0 115 0 0 -115 0 -115 -230 0 -230 0 0 115 0 115 -115 0 -115 0 0
115 0 115 115 0 116 0 -3 118 -3 117 -115 2 c-63 1 -168 2 -232 3 l-118 0 0
115 0 115 -115 0 -115 0 0 115 0 115 115 0 115 0 0 465 0 465 235 0 235 0 0
-115 0 -115 230 0 230 0 0 115 0 115 -230 0 -230 0 0 115 0 115 115 0 115 0 0
120 0 120 -230 0 -230 0 0 115 0 115 -120 0 -120 0 0 -230 0 -230 -117 0 c-65
-1 -221 -2 -348 -3 l-230 -2 -3 -117 -3 -118 -114 0 -115 0 0 235 0 235 350 0
350 0 0 230 0 230 -115 0 -115 0 0 -115 0 -115 -235 0 -235 0 0 115 0 115
-115 0 -115 0 0 -115z m-1400 -3260 l0 -115 -115 0 -115 0 0 115 0 115 115 0
115 0 0 -115z m2792 8 c2 -60 2 -163 0 -230 l-3 -123 -115 0 -114 0 0 230 0
230 115 0 114 0 3 -107z m468 -8 l0 -115 -115 0 -115 0 0 115 0 115 115 0 115
0 0 -115z m930 0 l0 -115 -115 0 -115 0 0 115 0 115 115 0 115 0 0 -115z
m-930 -460 l0 -115 -115 0 -115 0 0 -120 0 -120 115 0 115 0 0 -115 0 -115
-115 0 -115 0 0 -115 0 -115 115 0 115 0 0 -115 0 -115 -115 0 -115 0 0 115 0
116 -117 -3 -118 -3 -2 -115 c-1 -63 -2 -168 -3 -232 l0 -118 -115 0 -115 0 0
-115 0 -115 -115 0 -115 0 0 115 0 115 115 0 115 0 0 120 0 120 -115 0 -115 0
0 115 0 115 115 0 115 0 0 230 0 229 118 3 117 3 2 115 c1 63 2 168 3 233 l0
117 230 0 230 0 0 -115z m930 -465 l0 -350 -350 0 -350 0 0 350 0 350 350 0
350 0 0 -350z m930 235 l0 -115 -115 0 -115 0 0 115 0 115 115 0 115 0 0 -115z
m-930 -1170 l0 -345 -115 0 -115 0 0 345 0 345 115 0 115 0 0 -345z m470 -115
l0 -230 -120 0 -120 0 0 230 0 230 120 0 120 0 0 -230z"/>
<path d="M4327 1784 c-4 -4 -7 -58 -7 -121 l0 -113 120 0 121 0 -3 118 -3 117
-111 3 c-60 1 -113 -1 -117 -4z"/>
<path d="M3860 5855 l0 -115 115 0 115 0 0 115 0 115 -115 0 -115 0 0 -115z"/>
<path d="M4323 5158 l2 -813 815 0 815 0 2 813 3 812 -820 0 -820 0 3 -812z
m1397 2 l0 -580 -580 0 -580 0 0 580 0 580 580 0 580 0 0 -580z"/>
<path d="M4790 5160 l0 -350 350 0 350 0 0 350 0 350 -350 0 -350 0 0 -350z"/>
<path d="M2000 4460 l0 -120 115 0 115 0 0 120 0 120 -115 0 -115 0 0 -120z"/>
<path d="M3394 4567 c-2 -7 -3 -60 -2 -118 l3 -104 115 0 115 0 3 118 3 117
-116 0 c-86 0 -117 -3 -121 -13z"/>
<path d="M3860 4460 l0 -120 115 0 115 0 0 120 0 120 -115 0 -115 0 0 -120z"/>
<path d="M1530 3995 l0 -115 120 0 120 0 0 115 0 115 -120 0 -120 0 0 -115z"/>
<path d="M3390 3995 l0 -115 235 0 235 0 0 -120 0 -120 115 0 115 0 0 120 0
120 120 0 120 0 0 115 0 115 -470 0 -470 0 0 -115z"/>
<path d="M4790 3995 l0 -115 -115 0 -115 0 0 -120 0 -120 115 0 115 0 0 120 0
120 350 0 350 0 0 -120 0 -120 115 0 115 0 0 120 0 120 120 0 120 0 0 115 0
115 -120 0 -120 0 0 -115 0 -115 -115 0 -115 0 0 115 0 115 -350 0 -350 0 0
-115z"/>
<path d="M140 3415 l0 -235 115 0 115 0 -2 233 -3 232 -112 3 -113 3 0 -236z"/>
<path d="M607 3643 c-4 -3 -7 -57 -7 -120 l0 -113 235 0 236 0 -3 118 -3 117
-226 2 c-124 2 -229 0 -232 -4z"/>
<path d="M2464 2707 c-2 -7 -3 -60 -2 -118 l3 -104 115 0 115 0 0 115 0 115
-113 3 c-87 2 -114 0 -118 -11z"/>
<path d="M140 970 l0 -819 813 2 812 2 0 815 0 815 -812 2 -813 2 0 -819z
m1390 0 l0 -580 -580 0 -580 0 0 580 0 580 580 0 580 0 0 -580z"/>
<path d="M600 970 l0 -350 350 0 350 0 0 350 0 350 -350 0 -350 0 0 -350z"/>
</g>
</svg>
