<svg width="25" height="24" viewBox="0 0 25 24" fill="none" xmlns="http://www.w3.org/2000/svg">
<g clip-path="url(#clip0_5018_125009)">
<path d="M22.25 7H20.25V4H17.25V2H22.25V7ZM22.25 22V17H20.25V20H17.25V22H22.25ZM2.25 22H7.25V20H4.25V17H2.25V22ZM2.25 2V7H4.25V4H7.25V2H2.25Z" fill="black"/>
<path d="M9.7373 14.0527L11.6074 15.5371L10.8115 16.2354L8.97559 14.7656L9.7373 14.0527ZM11.6221 11.25V11.6406C11.6221 12.1777 11.5521 12.6595 11.4121 13.0859C11.2721 13.5124 11.0719 13.8753 10.8115 14.1748C10.5511 14.4743 10.2402 14.7038 9.87891 14.8633C9.51758 15.0195 9.11719 15.0977 8.67773 15.0977C8.24154 15.0977 7.84277 15.0195 7.48145 14.8633C7.12337 14.7038 6.8125 14.4743 6.54883 14.1748C6.28516 13.8753 6.08008 13.5124 5.93359 13.0859C5.79036 12.6595 5.71875 12.1777 5.71875 11.6406V11.25C5.71875 10.7129 5.79036 10.2327 5.93359 9.80957C6.07682 9.38314 6.27865 9.02018 6.53906 8.7207C6.80273 8.41797 7.11361 8.18848 7.47168 8.03223C7.83301 7.87272 8.23177 7.79297 8.66797 7.79297C9.10742 7.79297 9.50781 7.87272 9.86914 8.03223C10.2337 8.18848 10.5462 8.41797 10.8066 8.7207C11.0671 9.02018 11.2673 9.38314 11.4072 9.80957C11.5505 10.2327 11.6221 10.7129 11.6221 11.25ZM10.3916 11.6406V11.2402C10.3916 10.8431 10.3525 10.4932 10.2744 10.1904C10.1995 9.88444 10.0872 9.62891 9.9375 9.42383C9.79102 9.21549 9.61035 9.05924 9.39551 8.95508C9.18392 8.84766 8.94141 8.79395 8.66797 8.79395C8.40104 8.79395 8.16178 8.84766 7.9502 8.95508C7.73861 9.05924 7.55794 9.21549 7.4082 9.42383C7.25846 9.62891 7.14453 9.88444 7.06641 10.1904C6.98828 10.4932 6.94922 10.8431 6.94922 11.2402V11.6406C6.94922 12.0378 6.98828 12.3893 7.06641 12.6953C7.14453 13.0013 7.25846 13.2601 7.4082 13.4717C7.5612 13.68 7.74349 13.8379 7.95508 13.9453C8.16992 14.0495 8.41081 14.1016 8.67773 14.1016C8.95117 14.1016 9.19368 14.0495 9.40527 13.9453C9.61686 13.8379 9.7959 13.68 9.94238 13.4717C10.0889 13.2601 10.1995 13.0013 10.2744 12.6953C10.3525 12.3893 10.3916 12.0378 10.3916 11.6406ZM12.8672 7.89062H15.3818C15.9222 7.89062 16.3828 7.97201 16.7637 8.13477C17.1445 8.29753 17.4359 8.53841 17.6377 8.85742C17.8428 9.17318 17.9453 9.5638 17.9453 10.0293C17.9453 10.3841 17.8802 10.6966 17.75 10.9668C17.6198 11.237 17.4359 11.4648 17.1982 11.6504C16.9606 11.8327 16.6774 11.9743 16.3486 12.0752L15.9775 12.2559H13.7168L13.707 11.2842H15.4014C15.6943 11.2842 15.9385 11.2321 16.1338 11.1279C16.3291 11.0238 16.4756 10.8822 16.5732 10.7031C16.6742 10.5208 16.7246 10.3158 16.7246 10.0879C16.7246 9.84049 16.6758 9.62565 16.5781 9.44336C16.4837 9.25781 16.3372 9.11621 16.1387 9.01855C15.9401 8.91764 15.6878 8.86719 15.3818 8.86719H14.0928V15H12.8672V7.89062ZM16.9248 15L15.2549 11.8066L16.5391 11.8018L18.2334 14.9365V15H16.9248Z" fill="black"/>
</g>
<defs>
<clipPath id="clip0_5018_125009">
<rect width="24" height="24" fill="white" transform="translate(0.25)"/>
</clipPath>
</defs>
</svg>
