<svg width="25" height="24" viewBox="0 0 25 24" fill="none" xmlns="http://www.w3.org/2000/svg">
<g clip-path="url(#clip0_4989_125988)">
<path d="M10 6.5V9.5H7V6.5H10ZM11.5 5H5.5V11H11.5V5ZM10 14.5V17.5H7V14.5H10ZM11.5 13H5.5V19H11.5V13ZM18 6.5V9.5H15V6.5H18ZM19.5 5H13.5V11H19.5V5ZM13.5 13H15V14.5H13.5V13ZM15 14.5H16.5V16H15V14.5ZM16.5 13H18V14.5H16.5V13ZM13.5 16H15V17.5H13.5V16ZM15 17.5H16.5V19H15V17.5ZM16.5 16H18V17.5H16.5V16ZM18 14.5H19.5V16H18V14.5ZM18 17.5H19.5V19H18V17.5ZM22.5 7H20.5V4H17.5V2H22.5V7ZM22.5 22V17H20.5V20H17.5V22H22.5ZM2.5 22H7.5V20H4.5V17H2.5V22ZM2.5 2V7H4.5V4H7.5V2H2.5Z" fill="black"/>
</g>
<defs>
<clipPath id="clip0_4989_125988">
<rect width="24" height="24" fill="white" transform="translate(0.5)"/>
</clipPath>
</defs>
</svg>
