<?xml version="1.0" encoding="UTF-8"?>
<svg width="320" height="320" version="1.1" viewBox="0 0 320 320" xmlns="http://www.w3.org/2000/svg">
    <g stroke-width="28"></g>
    <g shape-rendering="auto">
        <path d="m151.13 0.00104c-28.363 0-54.915 7.9153-77.613 21.537-6.4723-5.2623-14.605-8.1915-23.067-8.1937a8.7661 8.7661 0 0 0-0.0035 0c-20.154 7.3e-4 -36.679 16.528-36.678 36.682a8.7661 8.7661 0 0 0 0 0.0106c0.0099 8.4147 2.9267 16.483 8.1033 22.927-13.825 22.819-21.865 49.572-21.865 78.161a8.7661 8.7661 0 1 0 17.531 0c0-24.702 6.7193-47.748 18.378-67.574 4.5663 1.9846 9.4727 3.1496 14.519 3.1573a8.7661 8.7661 0 0 0 0.01241 0c20.155 6.2e-4 36.683-16.527 36.682-36.682a8.7661 8.7661 0 0 0 0-4e-3c-0.0016-4.9994-1.1387-9.8628-3.0828-14.397 19.717-11.484 42.585-18.095 67.085-18.095a8.7661 8.7661 0 1 0 0-17.531zm-100.69 30.874c5.9129 2e-3 11.191 2.5121 14.836 7.0769a8.7661 8.7661 0 0 0 0.1826 0.21451c2.6715 3.3798 4.1326 7.5531 4.1341 11.863-0.0015 10.677-8.468 19.144-19.144 19.148-4.37-8e-3 -8.6011-1.5088-12-4.2546a8.7661 8.7661 0 0 0-0.01241-9e-3c-4.514-3.6331-7.1358-9.0979-7.1442-14.893 0.0025-10.677 8.4701-19.144 19.148-19.146z" color="#000000" color-rendering="auto" image-rendering="auto" solid-color="#000000" style="isolation:auto;mix-blend-mode:normal;text-decoration-color:#000000;text-decoration-line:none;text-decoration-style:solid;text-indent:0;text-transform:none;white-space:normal"/>
        <path d="m168.87 320c28.363 0 54.915-7.9155 77.614-21.538 6.4724 5.2624 14.605 8.1917 23.067 8.1939a8.7662 8.7662 0 0 0 4e-3 0c20.155-7e-4 36.68-16.528 36.679-36.682a8.7662 8.7662 0 0 0 0-0.011c-0.01-8.4149-2.9267-16.484-8.1034-22.927 13.825-22.82 21.866-49.572 21.866-78.162a8.7662 8.7662 0 1 0-17.531 0c0 24.703-6.7194 47.749-18.378 67.575-4.5664-1.9846-9.4728-3.1496-14.519-3.1573a8.7662 8.7662 0 0 0-0.0124 0c-20.155-6.2e-4 -36.683 16.527-36.682 36.682 2e-3 4.9994 1.1387 9.8628 3.0829 14.397-19.717 11.484-42.586 18.095-67.086 18.095a8.7662 8.7662 0 1 0 0 17.531zm100.69-30.875c-5.913 0-11.191-2.5122-14.836-7.0769a8.7662 8.7662 0 0 0-0.18261-0.2146c-2.6715-3.3799-4.1327-7.5531-4.1341-11.863 2e-3 -10.677 8.4681-19.144 19.144-19.148 4.37 8e-3 8.6012 1.5088 12 4.2547a8.7662 8.7662 0 0 0 0.0124 9e-3c4.5141 3.6332 7.1359 9.098 7.1443 14.893-3e-3 10.677-8.4702 19.145-19.148 19.146z" color="#000000" color-rendering="auto" image-rendering="auto" solid-color="#000000" style="isolation:auto;mix-blend-mode:normal;text-decoration-color:#000000;text-decoration-line:none;text-decoration-style:solid;text-indent:0;text-transform:none;white-space:normal"/>
    </g>
</svg>
