<svg width="375" height="150" viewBox="0 0 375 150" fill="none" xmlns="http://www.w3.org/2000/svg">
<g clip-path="url(#clip0_1020_224)">
<path fill-rule="evenodd" clip-rule="evenodd" d="M100.165 86C96.6153 86 93.3028 86.9844 90.4653 88.6791C89.6528 88.0187 88.6403 87.6573 87.5778 87.6573C85.0528 87.6573 82.9903 89.7134 82.9903 92.2305C82.9903 93.2773 83.3528 94.2866 84.0028 95.0841C82.2778 97.9377 81.2778 101.265 81.2778 104.829C81.2778 104.978 81.3028 105.115 81.3528 105.252C81.4028 105.389 81.4903 105.514 81.5903 105.614C81.6903 105.713 81.8153 105.801 81.9528 105.85C82.0903 105.9 82.2278 105.938 82.3778 105.938C82.5278 105.938 82.6653 105.913 82.8028 105.85C82.9403 105.801 83.0528 105.713 83.1653 105.614C83.2653 105.514 83.3528 105.389 83.4028 105.252C83.4528 105.115 83.4903 104.978 83.4778 104.829C83.4778 101.751 84.3153 98.8847 85.7778 96.405C86.3528 96.6542 86.9653 96.7913 87.5903 96.8037C90.1153 96.8037 92.1778 94.7477 92.1778 92.2305C92.1778 91.6075 92.0403 90.9969 91.7903 90.4361C94.2528 89.0031 97.1153 88.1807 100.178 88.1807C100.328 88.1807 100.465 88.1558 100.603 88.1059C100.74 88.0561 100.865 87.9688 100.965 87.8692C101.065 87.7695 101.153 87.6449 101.203 87.5078C101.253 87.3707 101.29 87.2336 101.29 87.0841C101.29 86.9346 101.265 86.7975 101.203 86.6604C101.153 86.5234 101.065 86.4112 100.965 86.2991C100.865 86.1994 100.74 86.1121 100.603 86.0623C100.453 86.0249 100.315 86 100.165 86ZM87.5778 89.8505C88.3153 89.8505 88.9778 90.162 89.4278 90.7352L89.4528 90.7601C89.7903 91.1838 89.9653 91.7072 89.9653 92.243C89.9653 93.5763 88.9028 94.6231 87.5778 94.6231C87.0278 94.6231 86.5028 94.4361 86.0778 94.0872C85.5153 93.6386 85.1903 92.9533 85.1903 92.2305C85.1903 90.8972 86.2528 89.8505 87.5778 89.8505ZM111.028 101.19L113.54 98.6856C113.74 98.4862 113.828 98.212 113.828 97.9379C113.828 97.3522 113.34 96.8912 112.753 96.9161C112.503 96.9286 112.253 97.0282 112.065 97.2027L109.553 99.7074L107.065 97.2276C107.328 96.9659 108.728 95.5703 109.54 94.7479C109.74 94.5485 109.828 94.2743 109.828 94.0002C109.828 93.4145 109.34 92.9535 108.753 92.9784C108.503 92.9909 108.253 93.0905 108.065 93.265L105.578 95.7448L103.303 93.4768C102.803 92.9784 102.003 92.9784 101.503 93.4768L98.4029 96.5796L95.9029 94.0874C95.7029 93.8881 95.4279 93.8008 95.1529 93.8008C94.5654 93.8008 94.1029 94.2868 94.1279 94.8725C94.1404 95.1342 94.2404 95.3709 94.4154 95.5578L96.9279 98.0625L93.6779 101.302L93.6778 101.302L93.6776 101.302C93.514 101.139 92.0275 99.6571 91.1654 98.8102C90.9654 98.6108 90.6904 98.5236 90.4154 98.5236C90.1154 98.5236 89.8529 98.6482 89.6654 98.8351C89.4779 99.022 89.3654 99.2962 89.3779 99.5952C89.3904 99.8444 89.4904 100.094 89.6654 100.281C90.3154 100.939 91.4606 102.074 91.9543 102.563C92.0682 102.676 92.1474 102.755 92.1779 102.785L89.0779 105.876C88.5779 106.374 88.5779 107.172 89.0779 107.67L91.3654 109.925L88.8529 112.43C88.6529 112.629 88.5654 112.904 88.5654 113.178C88.5654 113.763 89.0529 114.225 89.6404 114.2C89.8904 114.187 90.1404 114.087 90.3279 113.913C91.1529 113.103 92.7279 111.533 92.8529 111.408L95.3404 113.888L92.8279 116.393C92.6279 116.592 92.5404 116.866 92.5404 117.14C92.5404 117.726 93.0279 118.187 93.6154 118.162C93.8654 118.15 94.1154 118.05 94.3029 117.876C95.1279 117.066 96.6904 115.496 96.8154 115.358L99.1404 117.676C99.6404 118.175 100.44 118.175 100.94 117.676L104.04 114.586L106.565 117.103C106.765 117.302 107.04 117.39 107.315 117.39C107.903 117.39 108.365 116.904 108.34 116.318C108.328 116.069 108.228 115.82 108.053 115.633C107.203 114.773 105.528 113.115 105.528 113.115L108.79 109.863C108.853 109.925 110.428 111.496 111.315 112.368C111.515 112.567 111.79 112.654 112.065 112.654C112.653 112.654 113.115 112.168 113.09 111.583C113.078 111.334 112.978 111.084 112.803 110.897C112.052 110.138 110.649 108.748 110.339 108.441L110.338 108.44L110.278 108.38L113.378 105.29C113.878 104.791 113.878 103.994 113.378 103.496L111.028 101.19ZM105.965 101.302C105.728 101.763 105.203 101.988 104.728 101.851L105.49 104.841C105.628 105.377 105.29 105.963 104.74 106.125L99.1529 107.82L100.19 111.795C100.34 112.343 100.003 112.916 99.4404 113.091C98.8779 113.265 98.3154 112.953 98.1779 112.405L96.9029 107.446C96.7654 106.897 97.1029 106.324 97.6529 106.162L103.24 104.467L102.728 102.461C102.378 102.848 101.828 102.935 101.403 102.686C100.978 102.436 100.828 101.901 101.028 101.439L102.04 99.0095C102.09 98.8849 102.178 98.7603 102.278 98.6606C102.49 98.4488 102.778 98.3242 103.065 98.3367C103.278 98.3367 103.478 98.399 103.64 98.5236L105.703 100.031C106.09 100.293 106.203 100.841 105.965 101.302ZM112.09 123.196C109.253 124.891 105.94 125.875 102.39 125.875C102.24 125.875 102.103 125.85 101.965 125.813C101.828 125.763 101.703 125.676 101.603 125.576C101.503 125.464 101.415 125.352 101.365 125.215C101.303 125.078 101.278 124.941 101.278 124.791C101.278 124.642 101.315 124.504 101.365 124.367C101.415 124.23 101.503 124.106 101.603 124.006C101.703 123.906 101.828 123.819 101.965 123.769C102.103 123.719 102.24 123.695 102.39 123.695C105.453 123.695 108.315 122.872 110.778 121.439C110.528 120.878 110.39 120.268 110.39 119.645C110.39 117.128 112.453 115.071 114.978 115.071C115.603 115.084 116.215 115.221 116.79 115.47C118.253 112.99 119.09 110.124 119.09 107.047C119.09 106.897 119.115 106.76 119.165 106.623C119.215 106.486 119.303 106.361 119.403 106.261C119.515 106.162 119.628 106.075 119.765 106.025C119.903 105.962 120.04 105.937 120.19 105.937C120.34 105.937 120.478 105.975 120.615 106.025C120.753 106.075 120.878 106.162 120.978 106.261C121.078 106.361 121.165 106.486 121.215 106.623C121.265 106.76 121.29 106.897 121.29 107.047C121.29 110.61 120.278 113.95 118.553 116.791C119.203 117.589 119.565 118.598 119.565 119.645C119.565 122.162 117.503 124.218 114.978 124.218C113.915 124.218 112.903 123.857 112.09 123.196ZM113.128 121.14C113.578 121.713 114.24 122.025 114.978 122.025C116.303 122.025 117.365 120.978 117.365 119.645C117.365 118.922 117.04 118.237 116.478 117.788C116.053 117.439 115.528 117.252 114.978 117.252C113.653 117.252 112.59 118.299 112.59 119.632C112.59 120.168 112.765 120.691 113.103 121.115L113.128 121.14Z" fill="#305680"/>
</g>
<path d="M144.71 97.0071H137.926V115.823H135.157V97.0071H128.388V94.7168H144.71V97.0071V97.0071Z" fill="#305680"/>
<path d="M150.131 102.038C151.32 100.578 152.866 99.8488 154.77 99.8488C158.085 99.8488 159.757 101.719 159.786 105.459V115.823H157.104V105.444C157.094 104.313 156.833 103.478 156.321 102.936C155.819 102.395 155.031 102.125 153.958 102.125C153.089 102.125 152.325 102.357 151.668 102.82C151.011 103.284 150.499 103.893 150.131 104.647V115.823H147.45V93.5576H150.131V102.038V102.038Z" fill="#305680"/>
<path d="M166.715 115.823H164.033V100.138H166.715V115.823ZM163.815 95.9778C163.815 95.5429 163.946 95.1757 164.207 94.8761C164.477 94.5765 164.874 94.4268 165.395 94.4268C165.917 94.4268 166.314 94.5765 166.584 94.8761C166.855 95.1757 166.99 95.5429 166.99 95.9778C166.99 96.4127 166.855 96.7751 166.584 97.065C166.314 97.3549 165.917 97.4999 165.395 97.4999C164.874 97.4999 164.477 97.3549 164.207 97.065C163.946 96.7751 163.815 96.4127 163.815 95.9778Z" fill="#305680"/>
<path d="M173.527 100.139L173.614 102.11C174.813 100.602 176.378 99.8486 178.311 99.8486C181.626 99.8486 183.298 101.719 183.327 105.459V115.823H180.645V105.444C180.635 104.313 180.374 103.477 179.862 102.936C179.36 102.395 178.572 102.124 177.499 102.124C176.63 102.124 175.866 102.356 175.209 102.82C174.552 103.284 174.04 103.893 173.672 104.647V115.823H170.991V100.139H173.527V100.139Z" fill="#305680"/>
<path d="M186.762 107.85C186.762 105.405 187.328 103.463 188.458 102.023C189.589 100.573 191.087 99.8486 192.952 99.8486C194.865 99.8486 196.358 100.525 197.431 101.878L197.562 100.139H200.011V115.446C200.011 117.476 199.407 119.075 198.199 120.244C197.001 121.414 195.387 121.998 193.358 121.998C192.227 121.998 191.121 121.757 190.038 121.273C188.956 120.79 188.13 120.128 187.559 119.287L188.951 117.678C190.101 119.099 191.507 119.809 193.169 119.809C194.474 119.809 195.489 119.442 196.213 118.708C196.948 117.973 197.315 116.939 197.315 115.606V114.257C196.242 115.494 194.778 116.113 192.923 116.113C191.087 116.113 189.599 115.374 188.458 113.895C187.328 112.416 186.762 110.402 186.762 107.85V107.85ZM189.458 108.155C189.458 109.923 189.821 111.315 190.546 112.33C191.27 113.335 192.285 113.837 193.59 113.837C195.281 113.837 196.523 113.069 197.315 111.532V104.371C196.494 102.873 195.262 102.124 193.619 102.124C192.314 102.124 191.295 102.632 190.56 103.647C189.826 104.661 189.458 106.164 189.458 108.155V108.155Z" fill="#305680"/>
<path d="M213.173 111.663C213.173 110.938 212.898 110.377 212.347 109.981C211.806 109.575 210.854 109.227 209.491 108.937C208.138 108.648 207.061 108.3 206.259 107.894C205.466 107.488 204.877 107.005 204.49 106.444C204.113 105.884 203.925 105.217 203.925 104.444C203.925 103.159 204.466 102.071 205.549 101.182C206.641 100.293 208.032 99.8486 209.723 99.8486C211.501 99.8486 212.941 100.308 214.043 101.226C215.154 102.144 215.71 103.318 215.71 104.748H213.014C213.014 104.014 212.7 103.381 212.072 102.849C211.453 102.318 210.67 102.052 209.723 102.052C208.747 102.052 207.984 102.265 207.433 102.69C206.882 103.115 206.607 103.671 206.607 104.357C206.607 105.004 206.863 105.492 207.375 105.821C207.887 106.149 208.81 106.464 210.144 106.763C211.487 107.063 212.574 107.42 213.405 107.836C214.236 108.251 214.85 108.754 215.246 109.343C215.652 109.923 215.855 110.634 215.855 111.474C215.855 112.876 215.295 114.001 214.174 114.852C213.053 115.693 211.598 116.113 209.81 116.113C208.554 116.113 207.443 115.891 206.476 115.446C205.51 115.002 204.751 114.383 204.2 113.591C203.659 112.789 203.389 111.924 203.389 110.996H206.07C206.119 111.895 206.476 112.61 207.143 113.141C207.82 113.663 208.709 113.924 209.81 113.924C210.825 113.924 211.637 113.721 212.246 113.315C212.864 112.9 213.173 112.349 213.173 111.663V111.663Z" fill="#305680"/>
<path d="M219.769 115.823V94.7168H226.669C228.959 94.7168 230.68 95.1903 231.83 96.1374C232.989 97.0844 233.569 98.4857 233.569 100.341C233.569 101.327 233.289 102.201 232.728 102.965C232.168 103.719 231.404 104.303 230.438 104.719C231.578 105.038 232.477 105.647 233.134 106.545C233.801 107.434 234.134 108.497 234.134 109.734C234.134 111.629 233.521 113.117 232.293 114.199C231.066 115.282 229.331 115.823 227.089 115.823H219.769V115.823ZM222.552 105.951V113.547H227.147C228.442 113.547 229.462 113.213 230.206 112.547C230.96 111.87 231.337 110.942 231.337 109.763C231.337 107.222 229.955 105.951 227.191 105.951H222.552ZM222.552 103.719H226.756C227.974 103.719 228.945 103.414 229.67 102.805C230.404 102.197 230.771 101.37 230.771 100.327C230.771 99.167 230.433 98.3263 229.757 97.8044C229.08 97.2729 228.051 97.0071 226.669 97.0071H222.552V103.719V103.719Z" fill="#305680"/>
<path d="M237.135 107.836C237.135 106.299 237.435 104.917 238.034 103.69C238.643 102.463 239.484 101.516 240.556 100.849C241.639 100.182 242.871 99.8486 244.253 99.8486C246.388 99.8486 248.113 100.588 249.428 102.066C250.752 103.545 251.414 105.512 251.414 107.966V108.155C251.414 109.682 251.119 111.054 250.529 112.272C249.95 113.48 249.114 114.422 248.022 115.098C246.939 115.775 245.693 116.113 244.282 116.113C242.156 116.113 240.431 115.374 239.107 113.895C237.792 112.416 237.135 110.46 237.135 108.024V107.836ZM239.831 108.155C239.831 109.894 240.233 111.291 241.035 112.344C241.846 113.397 242.929 113.924 244.282 113.924C245.644 113.924 246.727 113.393 247.529 112.33C248.331 111.257 248.732 109.759 248.732 107.836C248.732 106.116 248.321 104.724 247.5 103.661C246.688 102.588 245.606 102.052 244.253 102.052C242.929 102.052 241.861 102.579 241.049 103.632C240.237 104.685 239.831 106.193 239.831 108.155V108.155Z" fill="#305680"/>
<path d="M264.46 115.823C264.305 115.514 264.179 114.963 264.083 114.17C262.836 115.465 261.348 116.113 259.618 116.113C258.072 116.113 256.801 115.678 255.806 114.808C254.82 113.929 254.327 112.818 254.327 111.474C254.327 109.841 254.946 108.575 256.183 107.676C257.429 106.768 259.178 106.314 261.43 106.314H264.039V105.082C264.039 104.144 263.759 103.4 263.199 102.849C262.638 102.289 261.812 102.009 260.72 102.009C259.763 102.009 258.961 102.25 258.313 102.733C257.666 103.216 257.342 103.801 257.342 104.487H254.646C254.646 103.705 254.921 102.951 255.472 102.226C256.033 101.491 256.787 100.912 257.734 100.486C258.69 100.061 259.739 99.8486 260.879 99.8486C262.686 99.8486 264.102 100.303 265.127 101.211C266.151 102.11 266.682 103.352 266.721 104.937V112.156C266.721 113.595 266.905 114.741 267.272 115.591V115.823H264.46V115.823ZM260.01 113.779C260.85 113.779 261.648 113.562 262.401 113.127C263.155 112.692 263.701 112.127 264.039 111.431V108.213H261.937C258.652 108.213 257.009 109.174 257.009 111.097C257.009 111.938 257.289 112.595 257.85 113.069C258.41 113.542 259.13 113.779 260.01 113.779V113.779Z" fill="#305680"/>
<path d="M278.535 102.545C278.13 102.477 277.69 102.443 277.216 102.443C275.457 102.443 274.264 103.192 273.636 104.69V115.823H270.954V100.139H273.563L273.607 101.951C274.486 100.549 275.733 99.8486 277.347 99.8486C277.869 99.8486 278.265 99.9163 278.535 100.052V102.545V102.545Z" fill="#305680"/>
<path d="M280.333 107.85C280.333 105.444 280.903 103.511 282.043 102.052C283.183 100.583 284.676 99.8488 286.522 99.8488C288.358 99.8488 289.813 100.477 290.885 101.733V93.5576H293.567V115.823H291.103L290.972 114.142C289.9 115.456 288.407 116.113 286.493 116.113C284.676 116.113 283.193 115.369 282.043 113.881C280.903 112.392 280.333 110.45 280.333 108.053V107.85V107.85ZM283.014 108.155C283.014 109.933 283.381 111.325 284.116 112.33C284.85 113.335 285.865 113.837 287.16 113.837C288.861 113.837 290.103 113.074 290.885 111.547V104.342C290.083 102.864 288.851 102.125 287.189 102.125C285.875 102.125 284.85 102.632 284.116 103.647C283.381 104.661 283.014 106.164 283.014 108.155V108.155Z" fill="#305680"/>
<defs>
<clipPath id="clip0_1020_224">
<rect width="40" height="40" fill="white" transform="translate(81.2778 86)"/>
</clipPath>
</defs>
</svg>
